<svg width="76" height="76" viewBox="0 0 76 76" fill="none" xmlns="http://www.w3.org/2000/svg">
<path d="M43.2172 40.0725H42.2904V40.9994V71.2727H30.9549V40.9994V40.0725H30.028H19.9268V29.7667H30.028H30.9549V28.8399V19.8728C30.9549 14.8748 32.552 11.1194 35.2199 8.60882C37.8962 6.09031 41.7547 4.72663 46.4545 4.72663C50.3032 4.72663 53.6962 4.95354 55.3823 5.11209V14.2278L49.5463 14.2304C49.5462 14.2304 49.546 14.2304 49.5459 14.2304C46.7835 14.2304 44.8755 14.8521 43.6988 16.1828C42.5424 17.4905 42.2901 19.2704 42.2901 21.0766V28.8399V29.7667H43.2169H54.8031L53.4073 40.0725H43.2172Z" stroke="black" stroke-width="1.85366"/>
</svg>
