<svg width="36" height="36" viewBox="0 0 36 36" fill="none" xmlns="http://www.w3.org/2000/svg">
<path d="M21.4885 24.8532C21.4885 24.8532 24.1946 23.3017 24.9017 22.9288C25.6089 22.5558 26.3398 22.4633 26.7844 22.7349C27.4587 23.1466 33.1097 26.906 33.5841 27.2372C34.0615 27.5713 34.2882 28.5231 33.6348 29.457C32.9844 30.3909 29.9769 34.0786 28.7029 34.0398C27.4289 33.9981 22.124 33.8817 12.1199 23.8776C2.1217 13.8735 2.00236 8.56857 1.96059 7.29158C1.91882 6.01757 5.60957 3.01006 6.54046 2.35665C7.47732 1.70622 8.4291 1.95088 8.76029 2.41036C9.13921 2.93249 12.8538 8.56559 13.2626 9.21005C13.543 9.65163 13.4416 10.3886 13.0657 11.0957C12.6957 11.8028 11.1472 14.509 11.1472 14.509C11.1472 14.509 12.2392 16.3708 15.93 20.0645C19.6267 23.7582 21.4885 24.8532 21.4885 24.8532Z" stroke="white" stroke-width="2" stroke-miterlimit="10"/>
</svg>
