<svg width="644" height="562" viewBox="0 0 644 562" fill="none" xmlns="http://www.w3.org/2000/svg">
<g clip-path="url(#clip0_2517_21206)">
<rect width="644" height="562" fill="white"/>
<g clip-path="url(#clip1_2517_21206)">
<path d="M36.3018 25.2693L59.8363 16.7034" stroke="#0D0D0D" stroke-width="2.39319" stroke-linecap="round" stroke-linejoin="round"/>
<path d="M36.9036 12.0204L33.7657 13.1625C33.5576 13.2382 33.3882 13.3935 33.2946 13.5941C33.201 13.7948 33.191 14.0244 33.2667 14.2325L37.169 24.9538L41.8759 23.2406L37.9736 12.5193C37.8979 12.3112 37.7426 12.1418 37.542 12.0482C37.3413 11.9546 37.1117 11.9446 36.9036 12.0204Z" stroke="#0D0D0D" stroke-width="2.39319" stroke-linecap="round" stroke-linejoin="round"/>
<path d="M41.4529 -2.0734L38.315 -0.931282C38.1069 -0.855554 37.9375 -0.700278 37.8439 -0.499611C37.7503 -0.298944 37.7403 -0.0693245 37.816 0.138734L45.7157 21.8428L50.4226 20.1297L42.523 -1.57444C42.4472 -1.7825 42.292 -1.95196 42.0913 -2.04553C41.8906 -2.1391 41.661 -2.14913 41.4529 -2.0734Z" stroke="#0D0D0D" stroke-width="2.39319" stroke-linecap="round" stroke-linejoin="round"/>
<path d="M51.7132 -0.477209L48.5753 0.66491C48.3672 0.740637 48.1977 0.895914 48.1042 1.09658C48.0106 1.29725 48.0006 1.52687 48.0763 1.73493L54.2628 18.7321L58.9697 17.0189L52.7832 0.021748C52.7075 -0.186311 52.5522 -0.355765 52.3515 -0.449338C52.1509 -0.54291 51.9213 -0.552936 51.7132 -0.477209Z" stroke="#0D0D0D" stroke-width="2.39319" stroke-linecap="round" stroke-linejoin="round"/>
</g>
<g clip-path="url(#clip2_2517_21206)">
<path d="M107.945 -0.806969L107.433 -2.21251C106.963 -3.50455 106.752 -4.87657 106.812 -6.25023C106.872 -7.62388 107.202 -8.97228 107.783 -10.2184C108.364 -11.4646 109.185 -12.584 110.199 -13.513C111.212 -14.4419 112.399 -15.162 113.691 -15.6323C114.983 -16.1026 116.355 -16.3137 117.729 -16.2538C119.102 -16.1938 120.451 -15.8638 121.697 -15.2827C122.943 -14.7017 124.063 -13.8808 124.992 -12.8671C125.92 -11.8534 126.641 -10.6666 127.111 -9.37454L127.622 -7.969" stroke="#0D0D0D" stroke-width="2.39319" stroke-linecap="round" stroke-linejoin="round"/>
</g>
<g clip-path="url(#clip3_2517_21206)">
<path d="M10.1999 103.533L-0.294821 107.352L-4.65474 114.033L-6.29178 109.535L-9.29026 110.626C-9.68788 110.771 -10.1267 110.752 -10.5102 110.573C-10.8937 110.394 -11.1905 110.07 -11.3352 109.673L-16.792 94.6804C-16.9367 94.2828 -16.9175 93.8439 -16.7387 93.4604C-16.5599 93.0769 -16.236 92.7802 -15.8384 92.6355L3.65172 85.5416C4.04934 85.3969 4.48817 85.4161 4.87166 85.5949C5.25516 85.7737 5.55191 86.0976 5.69663 86.4952L11.1534 101.488C11.2981 101.885 11.279 102.324 11.1002 102.708C10.9213 103.091 10.5975 103.388 10.1999 103.533Z" stroke="#0D0D0D" stroke-width="2.39319" stroke-linecap="round" stroke-linejoin="round"/>
</g>
<g clip-path="url(#clip4_2517_21206)">
<path d="M67.1702 82.7963C67.4597 83.5916 68.0532 84.2393 68.8202 84.5969C69.5871 84.9546 70.4648 84.9929 71.2601 84.7035C72.0553 84.414 72.703 83.8205 73.0606 83.0535C73.4183 82.2865 73.4566 81.4089 73.1672 80.6136C72.8777 79.8184 72.2842 79.1707 71.5172 78.813C70.7502 78.4554 69.8726 78.417 69.0773 78.7065C68.2821 78.9959 67.6344 79.5894 67.2767 80.3564C66.9191 81.1234 66.8808 82.0011 67.1702 82.7963Z" stroke="#0D0D0D" stroke-width="2.39319" stroke-linecap="round" stroke-linejoin="round"/>
<path d="M73.5371 74.4764C71.6197 73.5824 69.4257 73.4867 67.4378 74.2102C65.4498 74.9338 63.8306 76.4174 62.9365 78.3347" stroke="#0D0D0D" stroke-width="2.39319" stroke-linecap="round" stroke-linejoin="round"/>
<path d="M75.5629 70.1373C72.495 68.7069 68.9845 68.5536 65.8037 69.7114C62.6229 70.8691 60.0322 73.243 58.6015 76.3108" stroke="#0D0D0D" stroke-width="2.39319" stroke-linecap="round" stroke-linejoin="round"/>
<path d="M77.0225 65.5494C72.934 63.8151 68.34 63.6953 64.1667 65.2143C59.9934 66.7333 56.5511 69.7779 54.5339 73.7345" stroke="#0D0D0D" stroke-width="2.39319" stroke-linecap="round" stroke-linejoin="round"/>
</g>
<g clip-path="url(#clip5_2517_21206)">
<path d="M143.906 35.6936C143.442 35.4785 142.94 35.3574 142.429 35.3374C141.918 35.3174 141.408 35.3987 140.929 35.5769C140.45 35.755 140.01 36.0263 139.637 36.3751C139.263 36.724 138.962 37.1434 138.751 37.6093L129.534 57.3762L130.276 64.9214L136.533 60.6395L145.751 40.8725C145.972 40.4117 146.1 39.9116 146.127 39.4011C146.154 38.8906 146.08 38.3797 145.908 37.8981C145.737 37.4166 145.471 36.9738 145.128 36.5954C144.784 36.2169 144.368 35.9104 143.906 35.6936V35.6936Z" stroke="#0D0D0D" stroke-width="2.39319" stroke-linecap="round" stroke-linejoin="round"/>
<path d="M138.488 38.1746L145.487 41.4382" stroke="#0D0D0D" stroke-width="2.39319" stroke-linecap="round" stroke-linejoin="round"/>
<path d="M129.534 57.3748L136.537 60.6326" stroke="#0D0D0D" stroke-width="2.39319" stroke-linecap="round" stroke-linejoin="round"/>
</g>
<g clip-path="url(#clip6_2517_21206)">
<path d="M208.59 26.1021L205.073 27.9831L204.252 24.0793L210.32 11.0661C210.588 10.4908 211.074 10.0457 211.67 9.82866C212.267 9.61158 212.925 9.64032 213.5 9.90855C214.075 10.1768 214.521 10.6625 214.738 11.2589C214.955 11.8554 214.926 12.5136 214.658 13.0888L208.59 26.1021Z" stroke="#0D0D0D" stroke-width="2.39319" stroke-linecap="round" stroke-linejoin="round"/>
<path d="M215.083 23.8681L217.811 31.3639C217.956 31.7616 217.936 32.2004 217.758 32.5838C217.579 32.9673 217.255 33.2641 216.857 33.4088L201.866 38.8653C201.468 39.01 201.029 38.9909 200.646 38.8121C200.262 38.6332 199.966 38.3094 199.821 37.9118L194.364 22.9201C194.22 22.5225 194.239 22.0837 194.418 21.7002C194.596 21.3167 194.92 21.02 195.318 20.8752L202.814 18.147" stroke="#0D0D0D" stroke-width="2.39319" stroke-linecap="round" stroke-linejoin="round"/>
</g>
<g clip-path="url(#clip7_2517_21206)">
<path d="M284.446 -15.2946C284.416 -15.3997 284.364 -15.4973 284.294 -15.5815C284.224 -15.6657 284.138 -15.7347 284.04 -15.7843C283.943 -15.8338 283.836 -15.8628 283.727 -15.8695C283.618 -15.8762 283.508 -15.8605 283.405 -15.8233L262.419 -8.18469C262.316 -8.14721 262.222 -8.08902 262.142 -8.01371C262.063 -7.93841 262 -7.8476 261.957 -7.74691C261.914 -7.64622 261.892 -7.5378 261.893 -7.42835C261.894 -7.31891 261.917 -7.21078 261.961 -7.11065C263.03 -4.7217 264.851 -2.74789 267.146 -1.49021C269.442 -0.232531 272.085 0.240014 274.674 -0.14463L278.274 9.74679C278.326 9.88952 278.418 10.0145 278.538 10.107C278.659 10.1996 278.803 10.2559 278.954 10.2694C279.106 10.2829 279.258 10.253 279.393 10.1832C279.527 10.1134 279.64 10.0066 279.716 9.87532L281.81 6.27744C281.869 6.17622 281.905 6.06322 281.915 5.94649C281.926 5.82975 281.91 5.71214 281.87 5.60204L279.181 -1.78522C281.413 -3.15399 283.135 -5.21522 284.086 -7.65441C285.037 -10.0936 285.163 -12.7768 284.446 -15.2946V-15.2946Z" stroke="#0D0D0D" stroke-width="2.39319" stroke-linecap="round" stroke-linejoin="round"/>
</g>
<g clip-path="url(#clip8_2517_21206)">
<path d="M14.9258 169.208L12.6745 175.639L16.6954 175.025L19.8317 178.977L21.4971 171.287" stroke="#0D0D0D" stroke-width="2.39319" stroke-linecap="round" stroke-linejoin="round"/>
<path d="M29.3043 163.975L35.1629 167.454L31.6877 169.568L31.8254 174.612L25.6069 169.792" stroke="#0D0D0D" stroke-width="2.39319" stroke-linecap="round" stroke-linejoin="round"/>
<path d="M12.3989 165.552C13.1949 167.739 14.827 169.521 16.9363 170.504C19.0455 171.488 21.4591 171.593 23.646 170.797C25.8329 170.001 27.6141 168.369 28.5976 166.26C29.5812 164.15 29.6866 161.737 28.8906 159.55C28.0946 157.363 26.4625 155.582 24.3532 154.598C22.244 153.615 19.8305 153.509 17.6435 154.305C15.4566 155.101 13.6754 156.734 12.6919 158.843C11.7083 160.952 11.603 163.366 12.3989 165.552V165.552Z" stroke="#0D0D0D" stroke-width="2.39319" stroke-linecap="round" stroke-linejoin="round"/>
</g>
<g clip-path="url(#clip9_2517_21206)">
<path d="M77.0908 132.209L85.276 154.698" stroke="#0D0D0D" stroke-width="2.39319" stroke-linecap="round" stroke-linejoin="round"/>
<path d="M77.6365 133.709L96.377 126.888C96.5758 126.815 96.7952 126.825 96.987 126.914C97.1787 127.004 97.3271 127.166 97.3994 127.365L101.765 139.358C101.837 139.557 101.828 139.777 101.738 139.968C101.649 140.16 101.487 140.309 101.288 140.381L82.5476 147.202" stroke="#0D0D0D" stroke-width="2.39319" stroke-linecap="round" stroke-linejoin="round"/>
</g>
<g clip-path="url(#clip10_2517_21206)">
<path d="M157.578 128.089C157.308 128.667 156.82 129.114 156.221 129.332C155.622 129.55 154.961 129.521 154.383 129.251C153.806 128.982 153.359 128.494 153.141 127.895C152.923 127.296 152.952 126.635 153.221 126.057L157.285 117.348L161.642 119.38L157.578 128.089Z" stroke="#0D0D0D" stroke-width="2.39319" stroke-linecap="round" stroke-linejoin="round"/>
<path d="M165.218 106.017L159.463 118.36" stroke="#0D0D0D" stroke-width="2.39319" stroke-linecap="round" stroke-linejoin="round"/>
<path d="M167.347 105.242C167.167 105.628 166.842 105.926 166.443 106.071C166.043 106.216 165.602 106.197 165.217 106.017C164.832 105.837 164.534 105.512 164.389 105.113C164.244 104.713 164.263 104.272 164.443 103.887L166.137 100.258L169.04 101.612L167.347 105.242Z" stroke="#0D0D0D" stroke-width="2.39319" stroke-linecap="round" stroke-linejoin="round"/>
<path d="M158.303 111.658L155.166 110.191C155.185 109.412 154.977 108.645 154.567 107.982C154.157 107.32 153.563 106.792 152.857 106.462C152.033 106.082 151.103 105.995 150.222 106.219C150.792 106.664 151.195 107.288 151.364 107.991C151.533 108.694 151.459 109.434 151.154 110.089C150.848 110.745 150.33 111.277 149.683 111.6C149.036 111.923 148.298 112.017 147.591 111.867C147.86 112.418 148.253 112.9 148.739 113.275C149.225 113.649 149.791 113.906 150.393 114.026C150.995 114.145 151.616 114.123 152.208 113.962C152.8 113.801 153.347 113.505 153.806 113.097L155.963 114.103" stroke="#0D0D0D" stroke-width="2.39319" stroke-linecap="round" stroke-linejoin="round"/>
<path d="M164.983 118.309L167.413 119.441C167.39 120.361 167.685 121.261 168.247 121.99C168.81 122.718 169.606 123.23 170.502 123.441C171.398 123.651 172.339 123.547 173.167 123.145C173.995 122.743 174.659 122.068 175.048 121.234C175.437 120.4 175.527 119.457 175.302 118.565C175.078 117.672 174.553 116.884 173.816 116.333C173.079 115.782 172.175 115.501 171.255 115.539C170.336 115.576 169.457 115.929 168.767 116.538L165.329 114.934" stroke="#0D0D0D" stroke-width="2.39319" stroke-linecap="round" stroke-linejoin="round"/>
<path d="M171.051 119.37C171.085 119.298 171.139 119.238 171.206 119.197C171.274 119.155 171.352 119.135 171.432 119.139C171.511 119.142 171.587 119.169 171.651 119.216C171.715 119.263 171.764 119.328 171.791 119.402C171.818 119.476 171.822 119.557 171.803 119.634C171.785 119.711 171.743 119.781 171.685 119.834C171.626 119.888 171.553 119.923 171.475 119.935C171.397 119.947 171.317 119.935 171.245 119.902C171.149 119.857 171.074 119.776 171.038 119.676C171.002 119.576 171.006 119.466 171.051 119.37" stroke="#0D0D0D" stroke-width="2.39319" stroke-linecap="round" stroke-linejoin="round"/>
</g>
<g clip-path="url(#clip11_2517_21206)">
<path d="M240.77 80.7403C240.603 80.2815 240.261 79.9079 239.818 79.7015C239.376 79.4952 238.87 79.4731 238.411 79.6401L227.166 83.7327L224.083 81.7204C223.844 81.5642 223.571 81.4659 223.288 81.4332C223.004 81.4005 222.716 81.4344 222.447 81.5321L218.123 83.1062C217.664 83.2732 217.29 83.6156 217.084 84.0581C216.878 84.5006 216.855 85.0069 217.022 85.4657L222.689 101.035C222.856 101.494 223.199 101.867 223.641 102.074C224.084 102.28 224.59 102.302 225.049 102.135L244.077 95.2091C244.536 95.0421 244.91 94.6997 245.116 94.2572C245.323 93.8147 245.345 93.3084 245.178 92.8496L240.77 80.7403Z" stroke="#0D0D0D" stroke-width="2.39319" stroke-linecap="round" stroke-linejoin="round"/>
</g>
<g clip-path="url(#clip12_2517_21206)">
<path d="M299.001 51.8996L293.328 66.9471C293.284 67.0661 293.275 67.1953 293.302 67.3195C293.329 67.4436 293.391 67.5574 293.48 67.6474C293.57 67.7375 293.683 67.8 293.807 67.8276C293.931 67.8552 294.06 67.8467 294.179 67.8032L298.551 66.2122L302.188 76.2072L307.861 61.1597C307.905 61.0408 307.914 60.9117 307.888 60.7878C307.861 60.6638 307.799 60.55 307.71 60.46C307.62 60.3699 307.507 60.3073 307.384 60.2795C307.26 60.2516 307.131 60.2598 307.011 60.303L302.639 61.8946L299.001 51.8996Z" stroke="#0D0D0D" stroke-width="2.39319" stroke-linecap="round" stroke-linejoin="round"/>
</g>
<g clip-path="url(#clip13_2517_21206)">
<path d="M367.22 31.0676C366.458 31.334 365.735 31.7 365.07 32.1559C362.093 34.1685 359.865 37.878 358.682 41.2605C358.533 41.7137 358.541 42.2037 358.704 42.652C358.867 43.1002 359.177 43.4806 359.582 43.7321C362.613 45.5308 366.713 46.9884 370.335 46.6095C371.136 46.5293 371.923 46.3443 372.677 46.0593C373.438 45.7933 374.162 45.4284 374.828 44.9739C377.848 42.939 380.053 39.1854 381.215 35.8583C381.364 35.4051 381.356 34.9151 381.193 34.4668C381.03 34.0186 380.721 33.6381 380.315 33.3867C377.233 31.5554 373.138 30.1475 369.567 30.518C368.764 30.5972 367.975 30.782 367.22 31.0676V31.0676Z" stroke="#0D0D0D" stroke-width="2.39319" stroke-linecap="round" stroke-linejoin="round"/>
<circle cx="369.847" cy="38.282" r="2.32475" transform="rotate(-20 369.847 38.282)" stroke="#0D0D0D" stroke-width="2.39319" stroke-linecap="round" stroke-linejoin="round"/>
</g>
<path d="M439.989 22.8156C438.841 24.3173 436.486 23.9567 435.839 22.1801L430.643 7.90428C429.997 6.12775 431.569 4.3382 433.414 4.75006L447.179 7.82271C448.885 8.20341 449.62 10.2244 448.558 11.6124L439.989 22.8156Z" stroke="#0D0D0D" stroke-width="2.39319" stroke-linecap="round" stroke-linejoin="round"/>
<g clip-path="url(#clip14_2517_21206)">
<path d="M513.831 -0.824204C520.041 -3.08448 523.243 -9.95104 520.983 -16.1611C518.723 -22.3712 511.856 -25.5731 505.646 -23.3128C499.436 -21.0525 496.234 -14.186 498.494 -7.97591C500.754 -1.76586 507.621 1.43607 513.831 -0.824204Z" stroke="#0D0D0D" stroke-width="2.39319" stroke-linecap="round" stroke-linejoin="round"/>
</g>
<g clip-path="url(#clip15_2517_21206)">
<path d="M47.1181 263.276L58.1552 239.438" stroke="#0D0D0D" stroke-width="2.39319" stroke-linecap="square"/>
<path d="M64.7346 255.699L58.561 238.737L41.5991 244.911" stroke="#0D0D0D" stroke-width="2.39319" stroke-linecap="square"/>
</g>
<g clip-path="url(#clip16_2517_21206)">
<path d="M134.824 231.354L111.034 220.327" stroke="#0D0D0D" stroke-width="2.39319" stroke-linecap="square"/>
<path d="M116.458 236.874L110.285 219.912L127.247 213.738" stroke="#0D0D0D" stroke-width="2.39319" stroke-linecap="square"/>
</g>
<g clip-path="url(#clip17_2517_21206)">
<path d="M193.646 188.297L187.209 202.1L201.012 208.537" stroke="#0D0D0D" stroke-width="2.39319" stroke-linecap="square"/>
</g>
<g clip-path="url(#clip18_2517_21206)">
<path d="M260.607 186.846L267.043 173.043L253.24 166.606" stroke="#0D0D0D" stroke-width="2.39319" stroke-linecap="square"/>
</g>
<path d="M322.395 148.44L333.131 153.446L338.137 142.71" stroke="#0D0D0D" stroke-width="2.39319" stroke-linecap="square"/>
<path d="M394.974 130.937L399.98 120.201L410.716 125.207" stroke="#0D0D0D" stroke-width="2.39319" stroke-linecap="square"/>
<g clip-path="url(#clip19_2517_21206)">
<path d="M464.691 112.566L477.564 84.9593" stroke="#0D0D0D" stroke-width="2.39319" stroke-linecap="square"/>
<path d="M484.931 105.199L457.324 92.3259" stroke="#0D0D0D" stroke-width="2.39319" stroke-linecap="square"/>
</g>
<g clip-path="url(#clip20_2517_21206)">
<path d="M537.011 62.8633L544.378 83.103" stroke="#0D0D0D" stroke-width="2.39319" stroke-linecap="square"/>
<path d="M530.575 76.6665L550.814 69.2998" stroke="#0D0D0D" stroke-width="2.39319" stroke-linecap="square"/>
</g>
<path d="M600.29 51.2922L620.529 43.9256" stroke="#0D0D0D" stroke-width="2.39319" stroke-linecap="square"/>
<g clip-path="url(#clip21_2517_21206)">
<path d="M5.89646 338.944C12.1068 336.684 16.4083 332.838 15.5041 330.353C14.6 327.869 8.83257 327.688 2.62224 329.948C-3.58809 332.209 -7.8896 336.055 -6.98545 338.539C-6.0813 341.023 -0.313872 341.204 5.89646 338.944Z" stroke="#0D0D0D" stroke-width="2.39319" stroke-linecap="square"/>
<path d="M-6.98535 338.539L-4.53005 345.285C-3.626 347.769 2.14173 347.95 8.35186 345.69C14.562 343.43 18.864 339.584 17.9595 337.099L15.5042 330.354" stroke="#0D0D0D" stroke-width="2.39319" stroke-linecap="square"/>
<path d="M-4.53003 345.285L-2.07437 352.032C-1.17032 354.515 4.59741 354.697 10.8075 352.437C17.0177 350.176 21.3193 346.33 20.4152 343.846L17.9596 337.099" stroke="#0D0D0D" stroke-width="2.39319" stroke-linecap="square"/>
</g>
<g clip-path="url(#clip22_2517_21206)">
<path d="M89.8547 323.594L70.0689 330.777L61.9267 308.368L75.1465 303.559L84.056 308.172L89.8547 323.594Z" stroke="#0D0D0D" stroke-width="2.39319" stroke-linecap="square"/>
<path d="M72.9385 312.31L71.4033 316.423L69.1642 315.683" stroke="#0D0D0D" stroke-width="2.39319" stroke-linecap="square"/>
<path d="M75.3237 318.863L73.7885 322.976L71.5494 322.236" stroke="#0D0D0D" stroke-width="2.39319" stroke-linecap="square"/>
<path d="M77.1604 314.329L81.6581 312.692" stroke="#0D0D0D" stroke-width="2.39319" stroke-linecap="square"/>
<path d="M79.3433 320.326L83.841 318.689" stroke="#0D0D0D" stroke-width="2.39319" stroke-linecap="square"/>
</g>
<g clip-path="url(#clip23_2517_21206)">
<path d="M155.11 276.866L149.92 278.754L156.846 297.783L162.036 295.894L155.11 276.866Z" stroke="#0D0D0D" stroke-width="2.39319" stroke-linecap="square"/>
<path d="M140.143 296.026L134.953 297.915L137.472 304.835L142.662 302.946L140.143 296.026Z" stroke="#0D0D0D" stroke-width="2.39319" stroke-linecap="square"/>
<path d="M147.941 287.311L142.752 289.2L147.159 301.309L152.349 299.42L147.941 287.311Z" stroke="#0D0D0D" stroke-width="2.39319" stroke-linecap="square"/>
</g>
<g clip-path="url(#clip24_2517_21206)">
<path d="M210.26 280.301L209.748 278.895C209.278 277.603 209.067 276.231 209.127 274.858C209.187 273.484 209.516 272.136 210.098 270.889C210.679 269.643 211.499 268.524 212.513 267.595C213.527 266.666 214.714 265.946 216.006 265.476C217.298 265.005 218.67 264.794 220.043 264.854C221.417 264.914 222.766 265.244 224.012 265.825C225.258 266.406 226.377 267.227 227.306 268.241C228.235 269.255 228.955 270.441 229.426 271.733L229.937 273.139" stroke="#0D0D0D" stroke-width="2.39319" stroke-linecap="square"/>
<path d="M216.006 265.476C217.497 264.933 218.711 263.82 219.382 262.382C220.052 260.944 220.124 259.298 219.581 257.807C219.039 256.316 217.926 255.102 216.488 254.431C215.05 253.761 213.404 253.689 211.913 254.232C210.422 254.774 209.207 255.887 208.537 257.325C207.866 258.763 207.794 260.409 208.337 261.9C208.88 263.391 209.993 264.605 211.431 265.276C212.869 265.947 214.514 266.019 216.006 265.476V265.476Z" stroke="#0D0D0D" stroke-width="2.39319" stroke-linecap="square"/>
</g>
<g clip-path="url(#clip25_2517_21206)">
<path d="M288.655 226.3L274.6 231.415C274.6 231.415 275.058 232.674 275.623 234.226L281.762 251.093C282.327 252.645 282.786 253.904 282.786 253.904L296.841 248.788L295.818 245.977L289.679 229.111L288.655 226.3Z" stroke="#0D0D0D" stroke-width="2.39319" stroke-linecap="square"/>
<line x1="286.456" y1="247.276" x2="289.767" y2="246.071" stroke="#0D0D0D" stroke-width="2.39319" stroke-linecap="square"/>
</g>
<g clip-path="url(#clip26_2517_21206)">
<path d="M365.101 213.297L361.009 202.053C361.009 202.053 359.907 202.454 359.51 202.598L344.518 208.055L343.018 208.601L347.111 219.845L365.101 213.297Z" stroke="#0D0D0D" stroke-width="2.39319" stroke-linecap="square"/>
<path d="M369.677 219.272L346.685 227.64L347.111 219.845L365.101 213.297L369.677 219.272Z" stroke="#0D0D0D" stroke-width="2.39319" stroke-linecap="square"/>
<path d="M355.971 220.865L358.97 219.773" stroke="#0D0D0D" stroke-width="2.39319" stroke-linecap="square"/>
</g>
<g clip-path="url(#clip27_2517_21206)">
<path d="M432.301 174.017L409.813 182.202L410.631 184.451L415.542 197.944L416.361 200.193L438.85 192.008L438.031 189.759L433.12 176.266L432.301 174.017Z" stroke="#0D0D0D" stroke-width="2.39319" stroke-linecap="square"/>
<path d="M427.605 196.1L429.243 200.598" stroke="#0D0D0D" stroke-width="2.39319" stroke-linecap="square"/>
<path d="M424.745 202.235L433.74 198.961" stroke="#0D0D0D" stroke-width="2.39319" stroke-linecap="square"/>
</g>
<g clip-path="url(#clip28_2517_21206)">
<path d="M490.772 152.735L496.837 159.269L505.142 157.232L501.221 165.049L505.906 172.694L497.416 170.99L492.007 177.753L490.683 168.885L482.654 165.418L490.325 161.639L490.772 152.735Z" stroke="#0D0D0D" stroke-width="2.39319" stroke-linecap="square"/>
</g>
<g clip-path="url(#clip29_2517_21206)">
<path d="M570.302 123.789L551.885 130.504L560.066 152.982L566.81 142.887L578.466 146.285L570.302 123.789Z" stroke="#0D0D0D" stroke-width="2.39319" stroke-linecap="square"/>
</g>
<g clip-path="url(#clip30_2517_21206)">
<path d="M636.506 101.815L640.254 100.45C641.288 100.074 642.434 100.608 642.81 101.642L646.903 112.887C647.279 113.921 646.745 115.066 645.711 115.443L630.718 120.9C629.684 121.276 628.539 120.742 628.162 119.708L624.07 108.463C623.693 107.429 624.227 106.284 625.262 105.907L629.01 104.543" stroke="#0D0D0D" stroke-width="2.39319" stroke-linecap="square"/>
<path d="M626.033 122.605L627.907 121.923C628.424 121.735 628.691 121.162 628.503 120.645L623.046 105.652C622.858 105.135 622.285 104.868 621.768 105.056L619.894 105.739C619.377 105.927 619.11 106.499 619.298 107.017L624.755 122.009C624.943 122.526 625.516 122.793 626.033 122.605Z" stroke="#0D0D0D" stroke-width="2.39319" stroke-linecap="square"/>
<path d="M628.327 102.669L635.824 99.9406L637.87 105.563L630.374 108.291L628.327 102.669Z" stroke="#0D0D0D" stroke-width="2.39319" stroke-linecap="square"/>
<path d="M626.97 122.264L627.652 124.138C628.406 126.209 630.694 127.276 632.765 126.522C634.835 125.768 635.902 123.48 635.149 121.41L634.466 119.536" stroke="#0D0D0D" stroke-width="2.39319" stroke-linecap="square"/>
</g>
<g clip-path="url(#clip31_2517_21206)">
<path d="M38.8421 394.476L16.3538 402.661C16.3538 402.661 16.5978 403.333 16.8992 404.161L22.9017 420.652C23.2031 421.48 23.4471 422.151 23.4471 422.151L45.936 413.966L45.3903 412.467L39.3878 395.975L38.8421 394.476Z" stroke="#0D0D0D" stroke-width="2.39319" stroke-linecap="square"/>
<path d="M18.5359 408.658L41.0245 400.473" stroke="#0D0D0D" stroke-width="2.39319" stroke-linecap="square"/>
<path d="M23.1689 402.728L21.259 397.48" stroke="#0D0D0D" stroke-width="2.39319" stroke-linecap="square"/>
<path d="M33.6635 398.908L31.7537 393.66" stroke="#0D0D0D" stroke-width="2.39319" stroke-linecap="square"/>
</g>
<g clip-path="url(#clip32_2517_21206)">
<path d="M114.052 384.228L102.02 388.46L97.6599 395.14L96.0229 390.643L91.2644 392.268L84.9178 374.31L107.497 366.399L114.052 384.228Z" stroke="#0D0D0D" stroke-width="2.39319" stroke-linecap="square"/>
</g>
<g clip-path="url(#clip33_2517_21206)">
<path d="M169.485 363.904C169.774 364.699 170.368 365.347 171.135 365.705C171.902 366.062 172.78 366.101 173.575 365.811C174.37 365.522 175.018 364.928 175.375 364.161C175.733 363.394 175.771 362.517 175.482 361.722C175.192 360.926 174.599 360.279 173.832 359.921C173.065 359.563 172.187 359.525 171.392 359.814C170.597 360.104 169.949 360.697 169.591 361.464C169.234 362.231 169.195 363.109 169.485 363.904Z" stroke="#0D0D0D" stroke-width="2.39319" stroke-linecap="square"/>
<path d="M175.852 355.584C173.934 354.69 171.74 354.595 169.752 355.318C167.764 356.042 166.145 357.525 165.251 359.443" stroke="#0D0D0D" stroke-width="2.39319" stroke-linecap="square"/>
<path d="M177.878 351.245C174.81 349.815 171.299 349.662 168.118 350.819C164.938 351.977 162.347 354.351 160.916 357.419" stroke="#0D0D0D" stroke-width="2.39319" stroke-linecap="square"/>
<path d="M179.337 346.657C175.249 344.923 170.655 344.803 166.481 346.322C162.308 347.841 158.866 350.886 156.849 354.842" stroke="#0D0D0D" stroke-width="2.39319" stroke-linecap="square"/>
</g>
<g clip-path="url(#clip34_2517_21206)">
<path d="M246.22 316.801C245.756 316.586 245.254 316.465 244.744 316.445C244.233 316.425 243.723 316.507 243.244 316.685C242.764 316.863 242.325 317.134 241.951 317.483C241.578 317.832 241.277 318.251 241.066 318.717L231.848 338.484L232.591 346.029L238.848 341.747L248.066 321.98C248.287 321.52 248.415 321.02 248.442 320.509C248.469 319.998 248.395 319.488 248.223 319.006C248.051 318.524 247.786 318.082 247.442 317.703C247.099 317.325 246.683 317.018 246.22 316.801V316.801Z" stroke="#0D0D0D" stroke-width="2.39319" stroke-linecap="square"/>
<path d="M240.803 319.282L247.802 322.546" stroke="#0D0D0D" stroke-width="2.39319" stroke-linecap="square"/>
<path d="M231.849 338.483L238.851 341.74" stroke="#0D0D0D" stroke-width="2.39319" stroke-linecap="square"/>
</g>
<g clip-path="url(#clip35_2517_21206)">
<path d="M310.905 307.21L307.388 309.091L306.567 305.187L312.635 292.174C312.903 291.599 313.389 291.154 313.986 290.937C314.582 290.719 315.24 290.748 315.815 291.016C316.391 291.285 316.836 291.77 317.053 292.367C317.27 292.963 317.241 293.621 316.973 294.197L310.905 307.21Z" stroke="#0D0D0D" stroke-width="2.39319" stroke-linecap="square"/>
<path d="M317.397 304.976L320.682 314.083L302.797 320.595L296.299 302.451L305.128 299.255" stroke="#0D0D0D" stroke-width="2.39319" stroke-linecap="square"/>
</g>
<g clip-path="url(#clip36_2517_21206)">
<path d="M376.743 279.848L376.581 279.402L376.157 279.189L364.606 273.371L364.313 272.568L385.813 264.743L386.105 265.545L380.996 277.427L380.809 277.863L380.971 278.309L385.232 290.016L380.081 289.018L376.743 279.848Z" stroke="#0D0D0D" stroke-width="2.39319"/>
</g>
<g clip-path="url(#clip37_2517_21206)">
<path d="M436.551 255.665L438.734 261.662" stroke="#0D0D0D" stroke-width="2.39319" stroke-linecap="square"/>
<path d="M456.312 239.983L463.951 260.973" stroke="#0D0D0D" stroke-width="2.39319" stroke-linecap="square"/>
<path d="M437.511 256.885L456.474 241.764" stroke="#0D0D0D" stroke-width="2.39319" stroke-linecap="square"/>
<path d="M438.681 260.477L462.811 259.25" stroke="#0D0D0D" stroke-width="2.39319" stroke-linecap="square"/>
<path d="M443.296 260.819C443.296 260.819 444.599 262.589 445.824 263.391C447.048 264.194 448.49 264.6 449.953 264.555C451.417 264.511 452.831 264.017 454.004 263.142C455.177 262.266 456.388 260.1 456.388 260.1" stroke="#0D0D0D" stroke-width="2.39319" stroke-linecap="square"/>
</g>
<g clip-path="url(#clip38_2517_21206)">
<path d="M516.115 217.367L519.623 227.005L529.261 223.497C528.331 220.941 526.423 218.859 523.958 217.71C521.492 216.56 518.671 216.437 516.115 217.367Z" stroke="#0D0D0D" stroke-width="2.39319" stroke-linecap="square"/>
<path d="M514.072 221.749C512.166 222.443 510.508 223.686 509.309 225.322C508.109 226.958 507.422 228.913 507.333 230.94C507.245 232.966 507.759 234.974 508.812 236.708C509.864 238.442 511.407 239.825 513.245 240.683C515.084 241.54 517.135 241.833 519.14 241.524C521.145 241.216 523.014 240.319 524.509 238.949C526.005 237.579 527.06 235.795 527.543 233.825C528.025 231.855 527.912 229.785 527.218 227.879L517.58 231.387L514.072 221.749Z" stroke="#0D0D0D" stroke-width="2.39319" stroke-linecap="square"/>
</g>
<g clip-path="url(#clip39_2517_21206)">
<path d="M600.409 200.312L597.831 193.228L590.747 195.807" stroke="#0D0D0D" stroke-width="2.39319" stroke-linecap="square"/>
<path d="M597.54 193.876L591.586 205.459L584.546 203.259L578.802 214.416" stroke="#0D0D0D" stroke-width="2.39319" stroke-linecap="square"/>
</g>
<g clip-path="url(#clip40_2517_21206)">
<path d="M648.807 188.394L654.761 176.811L661.801 179.011L667.545 167.854" stroke="#0D0D0D" stroke-width="2.39319" stroke-linecap="square"/>
</g>
<g clip-path="url(#clip41_2517_21206)">
<path d="M56.2591 477.527C56.1656 477.561 56.0844 477.622 56.0256 477.702C55.9668 477.782 55.9331 477.878 55.9287 477.978C55.9244 478.077 55.9496 478.175 56.0012 478.26C56.0528 478.345 56.1284 478.413 56.2185 478.455C56.3087 478.497 56.4092 478.512 56.5075 478.496C56.6058 478.481 56.6974 478.437 56.7707 478.37C56.844 478.303 56.8957 478.216 56.9194 478.119C56.943 478.022 56.9375 477.921 56.9035 477.828C56.8579 477.702 56.7643 477.6 56.6435 477.544C56.5227 477.487 56.3844 477.481 56.2591 477.527Z" fill="#0D0D0D" stroke="#0D0D0D" stroke-width="1.70787" stroke-linecap="square"/>
<path d="M55.473 475.366L53.5259 470.016" stroke="#0D0D0D" stroke-width="1.70787" stroke-linecap="square"/>
<path d="M68.0773 478.526L47.8757 485.879L50.8759 462.154L68.0773 478.526Z" stroke="#0D0D0D" stroke-width="2.39319"/>
</g>
<g clip-path="url(#clip42_2517_21206)">
<path d="M117.393 450.747L114.989 456.747L119.01 456.133L122.147 460.085L123.815 452.7" stroke="#0D0D0D" stroke-width="2.39319" stroke-linecap="square"/>
<path d="M132.055 445.323L137.478 448.562L134.003 450.676L134.14 455.719L128.19 451.021" stroke="#0D0D0D" stroke-width="2.39319" stroke-linecap="square"/>
<path d="M114.714 446.66C115.51 448.847 117.142 450.628 119.251 451.612C121.36 452.596 123.774 452.701 125.961 451.905C128.148 451.109 129.929 449.477 130.912 447.368C131.896 445.258 132.001 442.845 131.205 440.658C130.409 438.471 128.777 436.69 126.668 435.706C124.559 434.723 122.145 434.617 119.958 435.413C117.771 436.209 115.99 437.841 115.007 439.951C114.023 442.06 113.918 444.473 114.714 446.66Z" stroke="#0D0D0D" stroke-width="2.39319" stroke-linecap="square"/>
</g>
<g clip-path="url(#clip43_2517_21206)">
<path d="M179.406 413.317L187.591 435.806" stroke="#0D0D0D" stroke-width="2.39319" stroke-linecap="square"/>
<path d="M179.951 414.817L199.441 407.723L204.08 420.466L204.352 421.216L184.862 428.31" stroke="#0D0D0D" stroke-width="2.39319" stroke-linecap="square"/>
</g>
<g clip-path="url(#clip44_2517_21206)">
<path d="M271.707 384.939L269.612 389.433L265.864 390.797L264.5 387.049L266.595 382.555C265.757 382.54 264.906 382.656 264.072 382.96C260.45 384.278 258.582 388.284 259.901 391.906C260.268 392.917 260.86 393.773 261.58 394.481L257.973 402.226C257.763 402.267 257.554 402.311 257.348 402.386C255.277 403.14 254.21 405.427 254.964 407.498C255.718 409.569 258.006 410.636 260.076 409.882C262.147 409.128 263.214 406.841 262.46 404.77C262.387 404.569 262.289 404.387 262.189 404.206L265.802 396.448C266.803 396.542 267.839 396.445 268.847 396.078C272.47 394.76 274.338 390.754 273.019 387.132C272.715 386.298 272.258 385.571 271.707 384.939Z" stroke="#0D0D0D" stroke-width="2.39319" stroke-linecap="square"/>
</g>
<g clip-path="url(#clip45_2517_21206)">
<path d="M329.888 363.925L330.337 364.134L330.803 363.965L342.504 359.706L348.221 375.413L324.819 383.931L318.168 365.658L326.838 362.503L329.888 363.925Z" stroke="#0D0D0D" stroke-width="2.39319"/>
</g>
<g clip-path="url(#clip46_2517_21206)">
<path d="M409.142 340.448L402.663 342.806L399.126 333.088L396.677 349.875L403.155 347.517L406.692 357.235L409.142 340.448Z" stroke="#0D0D0D" stroke-width="2.29802" stroke-linecap="square"/>
</g>
<g clip-path="url(#clip47_2517_21206)">
<path d="M460.452 324.218C460.452 324.218 460.958 316.013 470.046 312.706C479.134 309.398 484.796 315.357 484.796 315.357C484.796 315.357 484.289 323.562 475.201 326.87C466.114 330.177 460.452 324.218 460.452 324.218Z" stroke="#0D0D0D" stroke-width="2.39319" stroke-miterlimit="10"/>
<path d="M471.657 317.132C470.952 317.388 470.379 317.914 470.062 318.593C469.745 319.273 469.711 320.05 469.968 320.754C470.224 321.459 470.75 322.032 471.429 322.349C472.108 322.666 472.886 322.7 473.59 322.444C474.294 322.187 474.868 321.662 475.185 320.982C475.501 320.303 475.535 319.526 475.279 318.821C475.023 318.117 474.497 317.543 473.818 317.226C473.138 316.91 472.361 316.876 471.657 317.132V317.132Z" stroke="#0D0D0D" stroke-width="2.39319" stroke-miterlimit="10"/>
</g>
<g clip-path="url(#clip48_2517_21206)">
<path d="M539.125 306.636L532.021 287.116L550.842 291.317L539.125 306.636Z" stroke="#0D0D0D" stroke-width="2.39319" stroke-miterlimit="10"/>
</g>
<g clip-path="url(#clip49_2517_21206)">
<path d="M614.099 274.661L611.371 267.165" stroke="#0D0D0D" stroke-width="2.39319" stroke-miterlimit="10"/>
<path d="M610.348 264.354L609.666 262.48L610.348 264.354ZM607.961 257.795C604.978 258.881 602.55 261.106 601.208 263.982C599.867 266.859 599.723 270.15 600.809 273.132C601.894 276.114 604.12 278.543 606.996 279.884C609.872 281.225 613.164 281.369 616.146 280.284C619.128 279.198 621.557 276.973 622.898 274.096C624.239 271.22 624.383 267.929 623.297 264.947C622.212 261.965 619.986 259.536 617.11 258.195C614.234 256.853 610.943 256.71 607.961 257.795V257.795Z" stroke="#0D0D0D" stroke-width="2.39319" stroke-miterlimit="10"/>
</g>
<g clip-path="url(#clip50_2517_21206)">
<path d="M87.5531 569.688C87.9992 569.135 88.715 568.874 89.4124 569.011L96.5848 570.42C98.2467 570.747 99.4828 568.913 98.5571 567.495L94.5619 561.374C94.1734 560.779 94.1466 560.018 94.4922 559.397L98.0513 553.002C98.8749 551.522 97.5127 549.78 95.8779 550.223L88.827 552.132C88.1415 552.318 87.4096 552.109 86.9256 551.589L81.9505 546.248C80.7982 545.011 78.7252 545.766 78.6376 547.454L78.2595 554.744C78.2227 555.453 77.7964 556.083 77.152 556.382L70.5233 559.451C68.9865 560.163 69.0626 562.373 70.6448 562.977L77.4817 565.588C78.1456 565.842 78.6145 566.442 78.6994 567.148L79.5732 574.405C79.7757 576.086 81.9011 576.696 82.9643 575.378L87.5531 569.688Z" fill="#0D0D0D"/>
</g>
<g clip-path="url(#clip51_2517_21206)">
<path d="M167.791 525.828C167.676 525.809 167.559 525.822 167.451 525.865C167.343 525.908 167.249 525.978 167.178 526.07L159.127 537.493C158.452 538.351 157.551 539.004 156.524 539.378C155.498 539.751 154.388 539.831 153.319 539.607L139.809 536.032C139.696 536.007 139.578 536.014 139.468 536.05C139.358 536.087 139.26 536.152 139.184 536.24C139.108 536.327 139.057 536.433 139.036 536.547C139.014 536.661 139.024 536.779 139.064 536.888L142.823 547.215C143.176 548.184 143.899 548.974 144.834 549.41C145.769 549.845 146.838 549.892 147.807 549.539L169.734 541.559C170.703 541.206 171.492 540.483 171.928 539.548C172.364 538.613 172.411 537.544 172.058 536.574L168.299 526.247C168.26 526.138 168.192 526.041 168.103 525.968C168.013 525.894 167.905 525.846 167.791 525.828Z" fill="#0D0D0D"/>
<path d="M166.294 520.739C165.942 519.769 165.218 518.98 164.283 518.544C163.349 518.108 162.279 518.061 161.31 518.414L139.383 526.395C138.414 526.748 137.625 527.471 137.189 528.406C136.753 529.34 136.706 530.41 137.059 531.379C137.07 531.41 137.089 531.437 137.114 531.459C137.138 531.48 137.168 531.495 137.2 531.502L154.121 535.805C154.477 535.88 154.846 535.854 155.188 535.729C155.53 535.605 155.83 535.387 156.055 535.101L166.258 520.926C166.279 520.9 166.294 520.87 166.3 520.837C166.307 520.804 166.305 520.77 166.294 520.739Z" fill="#0D0D0D"/>
</g>
<g clip-path="url(#clip52_2517_21206)">
<path d="M240.025 509.683L235.774 507.699C235.321 507.487 234.831 507.367 234.331 507.345C233.832 507.323 233.333 507.4 232.863 507.571C232.393 507.742 231.962 508.003 231.593 508.341C231.225 508.679 230.927 509.087 230.716 509.54L230.312 510.407C226.224 508.922 222.276 507.078 218.514 504.896L218.918 504.029C219.343 503.114 219.388 502.068 219.043 501.12C218.698 500.172 217.991 499.4 217.078 498.972L212.821 496.995C211.902 496.592 210.863 496.558 209.92 496.901C208.977 497.245 208.203 497.938 207.758 498.838L206.677 501.169C206.159 502.291 206.042 503.557 206.347 504.756C206.652 505.954 207.36 507.01 208.352 507.748C216.216 513.552 225.161 517.724 234.661 520.019C235.865 520.298 237.128 520.157 238.241 519.621C239.355 519.085 240.252 518.185 240.785 517.07L241.872 514.737C242.084 514.284 242.204 513.794 242.226 513.295C242.248 512.796 242.172 512.297 242.001 511.828C241.83 511.358 241.568 510.927 241.23 510.559C240.893 510.19 240.485 509.892 240.032 509.682L240.025 509.683Z" fill="#0D0D0D"/>
</g>
<g clip-path="url(#clip53_2517_21206)">
<path d="M308.486 477.58C307.434 474.689 305.548 472.175 303.067 470.356C300.585 468.536 297.621 467.494 294.547 467.36C291.473 467.225 288.429 468.006 285.798 469.602C283.168 471.198 281.07 473.538 279.77 476.326C278.47 479.115 278.026 482.226 278.494 485.267C278.962 488.308 280.321 491.141 282.4 493.41C284.478 495.678 287.183 497.279 290.171 498.01C293.159 498.742 296.298 498.57 299.189 497.518L299.341 497.463C303.175 496.063 306.296 493.199 308.021 489.5C309.746 485.801 309.933 481.569 308.541 477.732L308.513 477.656L308.486 477.58ZM306.05 478.467C306.444 479.551 306.689 480.683 306.78 481.833C306.787 481.926 306.775 482.019 306.743 482.106C306.712 482.193 306.662 482.273 306.597 482.339C306.532 482.405 306.453 482.457 306.367 482.49C306.28 482.524 306.187 482.538 306.095 482.532C305.224 482.481 304.387 482.178 303.685 481.66L299.507 478.59C299.077 478.274 298.576 478.069 298.048 477.994C297.52 477.918 296.981 477.974 296.48 478.156L295.953 478.348C295.064 478.672 294.084 478.629 293.227 478.229C292.37 477.83 291.707 477.106 291.384 476.218C291.06 475.329 291.103 474.349 291.503 473.492C291.902 472.635 292.626 471.972 293.514 471.649L296.891 470.419C297.017 470.374 297.154 470.368 297.284 470.403C299.283 470.948 301.123 471.965 302.648 473.368C304.174 474.771 305.34 476.52 306.05 478.467ZM281.087 485.007C281.065 484.859 281.095 484.708 281.172 484.58C281.248 484.451 281.367 484.353 281.508 484.302L286.791 482.38C287.35 482.174 287.945 482.082 288.541 482.108C289.136 482.134 289.721 482.277 290.26 482.531L292.119 483.399C293.167 483.889 293.989 484.76 294.417 485.835C294.844 486.911 294.844 488.109 294.417 489.184L293.44 491.649C293.147 492.388 293.136 493.208 293.408 493.954L293.775 494.961C293.811 495.062 293.822 495.171 293.807 495.277C293.791 495.384 293.749 495.485 293.684 495.571C293.62 495.657 293.535 495.726 293.437 495.771C293.34 495.816 293.232 495.836 293.125 495.829C290.597 495.685 288.167 494.804 286.134 493.294C284.102 491.784 282.556 489.712 281.687 487.334C281.414 486.579 281.213 485.8 281.087 485.007Z" fill="#0D0D0D"/>
</g>
<g clip-path="url(#clip54_2517_21206)">
<path d="M370.644 451.303L369.958 451.553L368.559 447.71C367.831 445.708 366.337 444.077 364.406 443.177C362.475 442.277 360.265 442.18 358.263 442.909C356.261 443.637 354.63 445.132 353.73 447.063C352.829 448.994 352.733 451.203 353.461 453.205L354.86 457.048L354.174 457.298C353.446 457.563 352.853 458.107 352.526 458.809C352.198 459.511 352.163 460.314 352.428 461.042L356.924 473.395C357.189 474.123 357.732 474.716 358.435 475.044C359.137 475.371 359.94 475.406 360.668 475.141L377.139 469.147C377.867 468.882 378.46 468.338 378.787 467.636C379.115 466.934 379.15 466.13 378.885 465.402L374.389 453.049C374.124 452.321 373.58 451.728 372.878 451.401C372.176 451.074 371.373 451.038 370.644 451.303ZM366.156 464.595C365.613 464.793 365.024 464.825 364.462 464.687C363.901 464.55 363.393 464.249 363.003 463.823C362.613 463.397 362.357 462.865 362.27 462.294C362.182 461.723 362.265 461.139 362.509 460.615C362.753 460.092 363.147 459.652 363.641 459.352C364.135 459.053 364.707 458.906 365.284 458.931C365.861 458.957 366.418 459.152 366.884 459.494C367.35 459.836 367.704 460.308 367.902 460.851C368.167 461.579 368.132 462.382 367.804 463.084C367.477 463.787 366.884 464.33 366.156 464.595ZM358.978 455.55L357.579 451.707C357.248 450.797 357.292 449.792 357.701 448.915C358.11 448.037 358.851 447.358 359.762 447.026C360.672 446.695 361.676 446.739 362.554 447.148C363.431 447.558 364.111 448.299 364.442 449.209L365.841 453.052L358.978 455.55Z" fill="#0D0D0D"/>
</g>
<g clip-path="url(#clip55_2517_21206)">
<path d="M438.618 446.77C438.805 446.699 438.964 446.568 439.069 446.398C439.424 445.814 447.535 432.286 445.067 425.504C443.857 422.181 441.377 419.474 438.172 417.98C434.967 416.485 431.3 416.325 427.977 417.535C424.654 418.744 421.948 421.224 420.453 424.429C418.959 427.634 418.799 431.301 420.008 434.624C422.477 441.407 437.386 446.556 438.033 446.775C438.223 446.838 438.429 446.836 438.618 446.77ZM430.713 425.052C431.539 424.752 432.436 424.703 433.29 424.912C434.144 425.121 434.916 425.578 435.51 426.226C436.104 426.874 436.492 427.684 436.626 428.553C436.76 429.421 436.633 430.31 436.261 431.107C435.89 431.904 435.291 432.572 434.539 433.028C433.788 433.484 432.918 433.707 432.04 433.669C431.161 433.631 430.314 433.333 429.605 432.813C428.896 432.293 428.358 431.575 428.057 430.749C427.654 429.641 427.707 428.419 428.205 427.35C428.703 426.282 429.606 425.455 430.713 425.052Z" fill="#0D0D0D"/>
</g>
<g clip-path="url(#clip56_2517_21206)">
<path d="M514.631 399.435L512.903 399.446C512.654 399.451 512.406 399.402 512.178 399.302C511.95 399.202 511.745 399.055 511.579 398.869C511.409 398.691 511.277 398.479 511.192 398.247C511.108 398.015 511.073 397.768 511.089 397.521L511.339 395.753C511.4 395.123 511.264 394.489 510.95 393.94C510.636 393.39 510.159 392.951 509.585 392.683C509.011 392.416 508.369 392.333 507.746 392.445C507.122 392.558 506.55 392.861 506.106 393.313L504.881 394.556C504.701 394.724 504.489 394.853 504.257 394.938C504.026 395.022 503.78 395.059 503.534 395.047C503.286 395.034 503.043 394.971 502.821 394.86C502.598 394.749 502.401 394.594 502.241 394.404L501.134 393.061C500.729 392.574 500.183 392.224 499.572 392.059C498.961 391.893 498.313 391.921 497.718 392.138C497.123 392.354 496.609 392.749 496.247 393.269C495.885 393.788 495.692 394.407 495.695 395.04L495.662 396.839C495.662 397.088 495.611 397.334 495.512 397.561C495.412 397.789 495.267 397.994 495.085 398.163C494.905 398.331 494.693 398.46 494.461 398.544C494.23 398.629 493.984 398.666 493.738 398.654L491.987 398.452C491.357 398.391 490.723 398.527 490.174 398.841C489.624 399.155 489.185 399.632 488.917 400.206C488.65 400.78 488.567 401.422 488.679 402.045C488.792 402.668 489.095 403.241 489.547 403.685L490.79 404.909C490.961 405.088 491.093 405.3 491.177 405.532C491.262 405.764 491.297 406.011 491.281 406.257C491.273 406.506 491.212 406.75 491.101 406.974C490.99 407.197 490.832 407.393 490.638 407.55L489.307 408.653C488.82 409.058 488.47 409.603 488.305 410.214C488.14 410.826 488.167 411.473 488.384 412.068C488.6 412.663 488.995 413.177 489.515 413.539C490.035 413.901 490.653 414.094 491.287 414.091L493.015 414.081C493.264 414.076 493.511 414.125 493.74 414.225C493.968 414.324 494.173 414.472 494.339 414.658C494.509 414.836 494.641 415.048 494.725 415.28C494.81 415.512 494.845 415.759 494.829 416.005L494.664 417.743C494.582 418.383 494.704 419.033 495.013 419.599C495.322 420.166 495.803 420.62 496.385 420.897C496.968 421.174 497.623 421.261 498.258 421.143C498.893 421.026 499.474 420.711 499.919 420.244L501.148 419.012C501.324 418.839 501.536 418.706 501.769 418.621C502.001 418.537 502.249 418.503 502.495 418.522C502.744 418.532 502.988 418.595 503.21 418.706C503.433 418.817 503.63 418.973 503.788 419.165L504.891 420.496C505.296 420.983 505.842 421.333 506.453 421.498C507.064 421.663 507.712 421.636 508.307 421.419C508.902 421.203 509.416 420.807 509.778 420.288C510.14 419.768 510.333 419.15 510.33 418.516L510.32 416.788C510.317 416.539 510.367 416.293 510.467 416.065C510.566 415.837 510.713 415.632 510.896 415.464C511.073 415.291 511.285 415.158 511.517 415.073C511.749 414.988 511.997 414.955 512.244 414.974L513.977 415.127C514.628 415.222 515.293 415.104 515.872 414.791C516.452 414.479 516.915 413.987 517.193 413.391C517.471 412.794 517.55 412.124 517.417 411.479C517.284 410.834 516.947 410.249 516.456 409.811L515.212 408.587C515.042 408.408 514.91 408.196 514.826 407.964C514.741 407.732 514.706 407.485 514.722 407.239C514.73 406.99 514.791 406.746 514.902 406.522C515.013 406.299 515.171 406.103 515.365 405.946L516.696 404.843C517.183 404.438 517.533 403.893 517.698 403.282C517.863 402.67 517.836 402.023 517.619 401.428C517.402 400.833 517.007 400.319 516.488 399.957C515.968 399.595 515.35 399.402 514.716 399.405L514.631 399.435ZM505.088 412.574C503.933 412.963 502.691 413.017 501.507 412.731C500.322 412.444 499.243 411.829 498.394 410.955C497.842 410.354 497.414 409.651 497.134 408.884C496.855 408.118 496.729 407.304 496.764 406.489C496.8 405.674 496.996 404.874 497.341 404.135C497.686 403.396 498.173 402.732 498.775 402.182C499.999 401.089 501.601 400.518 503.239 400.589C504.878 400.66 506.424 401.369 507.548 402.563C508.1 403.164 508.528 403.868 508.808 404.634C509.087 405.4 509.213 406.214 509.178 407.029C509.142 407.844 508.946 408.644 508.601 409.383C508.256 410.122 507.769 410.786 507.167 411.336C506.567 411.889 505.859 412.311 505.088 412.574Z" fill="#0D0D0D"/>
</g>
<g clip-path="url(#clip57_2517_21206)">
<path d="M588.149 383.525C588.123 383.463 588.082 383.41 588.03 383.369C587.977 383.329 587.915 383.303 587.849 383.295C587.781 383.281 587.711 383.286 587.646 383.31C587.581 383.334 587.524 383.375 587.481 383.428C585.623 386.541 581.064 389.481 576.298 391.215C571.532 392.95 566.137 393.634 562.726 392.439C562.658 392.425 562.588 392.43 562.523 392.454C562.459 392.478 562.401 392.519 562.358 392.572C562.313 392.621 562.282 392.681 562.268 392.746C562.254 392.811 562.257 392.878 562.277 392.941L563.129 395.283C564.224 398.293 570.899 398.624 578.047 396.022C585.196 393.42 590.096 388.876 589.001 385.867L588.149 383.525Z" fill="#0D0D0D"/>
<path d="M560.914 389.197C562.009 392.206 568.683 392.537 575.832 389.935C582.981 387.333 587.881 382.79 586.786 379.78L585.933 377.438C585.908 377.377 585.867 377.323 585.814 377.283C585.762 377.242 585.699 377.217 585.634 377.208C585.566 377.194 585.496 377.2 585.431 377.223C585.366 377.247 585.309 377.288 585.266 377.342C583.407 380.455 578.849 383.394 574.083 385.128C569.317 386.863 563.922 387.547 560.511 386.352C560.443 386.338 560.373 386.344 560.308 386.367C560.243 386.391 560.186 386.432 560.143 386.486C560.098 386.535 560.067 386.594 560.053 386.659C560.038 386.724 560.041 386.791 560.061 386.855L560.914 389.197Z" fill="#0D0D0D"/>
<path d="M571.867 379.042C567.101 380.777 561.706 381.46 558.295 380.265C558.228 380.252 558.158 380.257 558.093 380.281C558.028 380.304 557.971 380.345 557.928 380.399C557.89 380.437 557.86 380.481 557.841 380.531C557.822 380.58 557.814 380.633 557.816 380.686L558.684 383.069C559.779 386.079 566.453 386.41 573.602 383.808C580.751 381.206 585.651 376.662 584.555 373.653L583.688 371.27C583.663 371.209 583.622 371.155 583.569 371.115C583.517 371.074 583.454 371.048 583.388 371.04C583.321 371.026 583.251 371.032 583.186 371.055C583.121 371.079 583.064 371.12 583.021 371.174C581.192 374.368 576.633 377.307 571.867 379.042Z" fill="#0D0D0D"/>
<path d="M571.372 377.68C578.516 375.08 583.42 370.533 582.325 367.525C581.23 364.517 574.551 364.187 567.407 366.787C560.263 369.387 555.359 373.934 556.453 376.942C557.548 379.95 564.227 380.281 571.372 377.68Z" fill="#0D0D0D"/>
</g>
<g clip-path="url(#clip58_2517_21206)">
<path d="M634.787 360.656L631.538 361.838C630.641 362.165 630.179 363.157 630.505 364.054L633.461 372.175C633.788 373.072 634.78 373.534 635.677 373.208L638.925 372.025C639.822 371.699 640.284 370.707 639.958 369.81L637.002 361.689C636.676 360.792 635.684 360.33 634.787 360.656Z" fill="#0D0D0D"/>
<path d="M639.337 342.446L636.088 343.628C635.191 343.955 634.729 344.946 635.055 345.843L643.331 368.582C643.658 369.479 644.65 369.941 645.547 369.615L648.795 368.433C649.692 368.106 650.155 367.114 649.828 366.217L641.552 343.479C641.225 342.582 640.234 342.119 639.337 342.446Z" fill="#0D0D0D"/>
</g>
<g clip-path="url(#clip59_2517_21206)">
<path d="M261.298 582.534C260.571 582.797 259.794 582.894 259.024 582.819C258.255 582.744 257.511 582.498 256.849 582.099C256.186 581.7 255.621 581.158 255.194 580.513C254.768 579.868 254.49 579.136 254.382 578.371C254.221 577.166 254.481 575.942 255.117 574.907C255.754 573.871 256.728 573.086 257.875 572.685L260.981 571.555C261.153 571.492 261.293 571.363 261.371 571.197C261.448 571.031 261.456 570.841 261.394 570.669C261.02 569.642 260.33 567.745 260.33 567.745C260.013 566.886 259.37 566.187 258.54 565.8C257.71 565.413 256.761 565.369 255.899 565.679C250.078 567.798 267.411 561.489 237.708 572.3C237.45 572.394 237.165 572.382 236.915 572.265C236.666 572.149 236.473 571.939 236.379 571.68C236.285 571.422 236.297 571.136 236.414 570.887C236.53 570.638 236.74 570.445 236.999 570.351L254.215 564.085C254.301 564.053 254.371 563.989 254.41 563.906C254.449 563.823 254.453 563.728 254.422 563.642L254.322 563.369C253.67 561.576 251.1 560.863 248.592 561.776L234.3 566.978C233.094 567.417 232.111 568.317 231.569 569.48C231.026 570.644 230.968 571.975 231.407 573.181L238.737 593.321C239.176 594.527 240.077 595.509 241.24 596.051C242.403 596.594 243.734 596.652 244.94 596.213L264.431 589.119C265.292 588.806 265.994 588.163 266.381 587.332C266.769 586.501 266.81 585.55 266.497 584.689L265.314 581.44C265.283 581.354 265.219 581.284 265.136 581.245C265.052 581.206 264.957 581.202 264.871 581.234L261.298 582.534Z" fill="#0D0D0D"/>
</g>
<g clip-path="url(#clip60_2517_21206)">
<path d="M303.145 552.1L331.263 541.866C331.409 541.813 331.527 541.705 331.592 541.565C331.658 541.425 331.665 541.264 331.612 541.119L330.998 539.433C330.893 539.136 330.731 538.864 330.521 538.631C330.31 538.398 330.055 538.209 329.771 538.075C329.487 537.94 329.179 537.864 328.866 537.85C328.552 537.835 328.238 537.883 327.943 537.99L303.198 546.997C302.9 547.102 302.626 547.266 302.392 547.478C302.158 547.691 301.968 547.948 301.835 548.234C301.701 548.521 301.626 548.831 301.614 549.146C301.601 549.462 301.652 549.777 301.763 550.073L302.377 551.759C302.404 551.833 302.445 551.901 302.499 551.958C302.552 552.016 302.617 552.062 302.689 552.094C302.76 552.125 302.838 552.142 302.916 552.144C302.995 552.145 303.073 552.13 303.145 552.1Z" fill="#0D0D0D"/>
<path d="M336.729 555.178L333.039 545.039C332.986 544.894 332.877 544.776 332.737 544.71C332.597 544.645 332.437 544.638 332.291 544.691L304.173 554.925C304.099 554.949 304.029 554.988 303.97 555.039C303.911 555.09 303.862 555.153 303.828 555.224C303.793 555.294 303.773 555.371 303.769 555.449C303.765 555.528 303.777 555.606 303.804 555.68L307.494 565.818C307.599 566.115 307.762 566.388 307.974 566.621C308.187 566.854 308.443 567.042 308.729 567.174C309.015 567.305 309.325 567.378 309.64 567.388C309.955 567.398 310.268 567.345 310.562 567.232L335.308 558.225C335.603 558.121 335.874 557.959 336.106 557.748C336.338 557.538 336.526 557.284 336.658 557C336.79 556.716 336.865 556.409 336.877 556.096C336.889 555.783 336.839 555.471 336.729 555.178ZM317.929 559.466L312.301 561.515C312.015 561.577 311.716 561.533 311.459 561.391C311.203 561.25 311.007 561.02 310.907 560.745C310.806 560.47 310.809 560.168 310.915 559.895C311.02 559.622 311.221 559.396 311.48 559.259L317.108 557.211C317.394 557.149 317.693 557.193 317.949 557.335C318.205 557.476 318.402 557.706 318.502 557.981C318.602 558.256 318.599 558.558 318.494 558.831C318.388 559.104 318.187 559.33 317.929 559.466Z" fill="#0D0D0D"/>
</g>
<g clip-path="url(#clip61_2517_21206)">
<path d="M383.637 512.623C380.746 513.676 378.231 515.562 376.412 518.043C374.593 520.524 373.55 523.489 373.416 526.563C373.282 529.636 374.062 532.681 375.658 535.311C377.254 537.941 379.595 540.039 382.383 541.339C385.171 542.64 388.283 543.084 391.323 542.616C394.364 542.148 397.198 540.788 399.466 538.71C401.735 536.631 403.336 533.927 404.067 530.938C404.798 527.95 404.627 524.812 403.575 521.921C402.164 518.044 399.27 514.886 395.531 513.143C391.792 511.399 387.513 511.212 383.637 512.623V512.623ZM397.606 531.294C397.541 531.453 397.445 531.597 397.324 531.718C397.203 531.839 397.059 531.935 396.901 532.001C396.742 532.066 396.573 532.099 396.401 532.099C396.23 532.098 396.06 532.063 395.903 531.997L387.799 528.683C387.64 528.606 387.499 528.497 387.384 528.364C387.269 528.23 387.183 528.074 387.13 527.906L384.691 521.206C384.574 520.883 384.589 520.527 384.735 520.215C384.88 519.904 385.143 519.662 385.466 519.545C385.789 519.427 386.146 519.443 386.457 519.588C386.769 519.733 387.01 519.997 387.128 520.32L389.371 526.483L396.895 529.608C397.213 529.738 397.466 529.988 397.599 530.304C397.732 530.62 397.734 530.976 397.606 531.294Z" fill="#0D0D0D"/>
</g>
<g clip-path="url(#clip62_2517_21206)">
<path d="M465.396 511.835L459.939 513.821C459.867 513.85 459.808 513.904 459.772 513.972C459.737 514.041 459.727 514.12 459.744 514.196C459.78 514.311 459.821 514.425 459.868 514.537C460.162 515.344 460.765 516.002 461.544 516.365C462.323 516.729 463.215 516.768 464.022 516.474C464.83 516.18 465.488 515.577 465.851 514.798C466.214 514.019 466.253 513.127 465.959 512.32C465.924 512.204 465.882 512.09 465.835 511.979C465.816 511.94 465.789 511.906 465.757 511.878C465.724 511.85 465.687 511.828 465.646 511.815C465.605 511.802 465.562 511.797 465.519 511.8C465.476 511.803 465.435 511.815 465.396 511.835Z" fill="#0D0D0D"/>
<path d="M473.416 506.543C471.007 504.281 469.162 501.484 468.03 498.378L467.693 497.452C467.067 495.623 466.002 493.975 464.59 492.653C463.178 491.332 461.463 490.378 459.596 489.874C458.532 489.633 457.429 489.607 456.355 489.798L455.849 488.41C455.673 487.925 455.311 487.53 454.844 487.312C454.376 487.094 453.842 487.071 453.357 487.247C452.872 487.424 452.478 487.786 452.26 488.253C452.042 488.72 452.018 489.255 452.195 489.74L452.705 491.141C451.527 491.839 450.532 492.806 449.8 493.963C448.888 495.507 448.337 497.236 448.187 499.023C448.037 500.809 448.292 502.606 448.934 504.28L449.271 505.206C450.401 508.312 450.785 511.641 450.394 514.923C450.378 515.03 450.39 515.14 450.427 515.242C450.464 515.344 450.526 515.435 450.606 515.508C450.698 515.578 450.807 515.623 450.922 515.64C451.036 515.656 451.153 515.642 451.261 515.6L473.187 507.62C473.291 507.58 473.384 507.515 473.457 507.431C473.53 507.347 473.581 507.246 473.605 507.137C473.625 507.03 473.618 506.92 473.585 506.816C473.552 506.713 473.494 506.619 473.416 506.543Z" fill="#0D0D0D"/>
</g>
<g clip-path="url(#clip63_2517_21206)">
<path d="M536.193 469.507L517.915 476.159C517.754 476.218 517.622 476.339 517.55 476.494C517.477 476.65 517.469 476.829 517.528 476.99L523.072 492.222C523.307 492.868 523.789 493.394 524.413 493.685C525.036 493.976 525.749 494.007 526.396 493.772L541.018 488.45C541.664 488.214 542.191 487.732 542.482 487.109C542.772 486.485 542.803 485.772 542.568 485.126L537.02 469.882C536.959 469.724 536.838 469.596 536.683 469.525C536.529 469.455 536.353 469.448 536.193 469.507ZM530.022 487.622C530.11 487.864 530.099 488.132 529.99 488.366C529.881 488.599 529.683 488.78 529.441 488.869C529.199 488.957 528.931 488.945 528.697 488.836C528.464 488.727 528.283 488.53 528.194 488.287L524.367 477.771C524.279 477.529 524.29 477.261 524.399 477.028C524.508 476.794 524.706 476.613 524.948 476.525C525.191 476.437 525.458 476.448 525.692 476.557C525.926 476.666 526.107 476.864 526.195 477.106L530.022 487.622ZM536.115 485.404C536.203 485.647 536.191 485.914 536.082 486.148C535.973 486.382 535.776 486.563 535.534 486.651C535.291 486.739 535.024 486.728 534.79 486.619C534.556 486.509 534.375 486.312 534.287 486.07L530.46 475.554C530.371 475.311 530.383 475.044 530.492 474.81C530.601 474.576 530.799 474.396 531.041 474.307C531.283 474.219 531.551 474.231 531.785 474.34C532.018 474.449 532.199 474.646 532.287 474.889L536.115 485.404Z" fill="#0D0D0D"/>
<path d="M536.083 463.82C534.235 463.659 532.373 463.836 530.588 464.343C529.792 463.149 528.618 462.256 527.254 461.808C525.89 461.361 524.415 461.384 523.066 461.875C521.717 462.366 520.572 463.296 519.815 464.516C519.058 465.736 518.732 467.174 518.89 468.601C517.259 469.348 515.762 470.359 514.46 471.593C514.114 471.921 513.865 472.337 513.74 472.796C513.615 473.255 513.619 473.74 513.751 474.197C513.869 474.52 514.11 474.784 514.422 474.929C514.734 475.074 515.09 475.09 515.413 474.972L537.347 466.989C537.67 466.871 537.933 466.63 538.079 466.319C538.224 466.007 538.239 465.65 538.122 465.327C537.955 464.911 537.677 464.55 537.316 464.284C536.956 464.018 536.529 463.857 536.083 463.82ZM523.95 464.303C524.603 464.059 525.311 464.002 525.994 464.139C526.677 464.275 527.309 464.6 527.819 465.075C525.662 465.715 523.546 466.486 521.482 467.381C521.558 466.687 521.83 466.028 522.267 465.483C522.704 464.937 523.288 464.528 523.95 464.303Z" fill="#0D0D0D"/>
</g>
<g clip-path="url(#clip64_2517_21206)">
<path d="M611.953 443.252C611.885 443.066 611.775 442.898 611.632 442.762C611.489 442.625 611.317 442.523 611.128 442.463L593.958 436.985C593.685 436.899 593.392 436.905 593.123 437.003C592.854 437.1 592.625 437.284 592.472 437.526L582.84 452.759C582.734 452.926 582.668 453.115 582.646 453.312C582.624 453.509 582.648 453.708 582.715 453.894L588.701 470.34C588.819 470.664 589.06 470.927 589.372 471.072C589.683 471.217 590.04 471.233 590.363 471.115L600.109 467.568C600.27 467.509 600.402 467.389 600.475 467.233C600.547 467.077 600.555 466.899 600.496 466.737L598.501 461.255C598.207 460.447 598.246 459.556 598.609 458.777C598.972 457.998 599.63 457.395 600.438 457.101C601.246 456.807 602.137 456.846 602.916 457.209C603.695 457.572 604.298 458.23 604.592 459.038L606.588 464.52C606.646 464.682 606.767 464.813 606.923 464.886C607.079 464.959 607.257 464.966 607.418 464.908L617.164 461.36C617.488 461.243 617.751 461.002 617.896 460.69C618.041 460.378 618.057 460.022 617.939 459.699L611.953 443.252Z" fill="#0D0D0D"/>
</g>
<g clip-path="url(#clip65_2517_21206)">
<path d="M496.035 559.982L485.226 554.942C485.083 554.87 484.925 554.833 484.766 554.833C484.606 554.832 484.448 554.869 484.305 554.94C484.163 555.015 484.039 555.121 483.943 555.249C483.846 555.377 483.778 555.525 483.745 555.682L482.576 561.717C482.529 561.949 482.563 562.189 482.672 562.399C482.781 562.608 482.958 562.774 483.174 562.868L491.282 566.649C491.405 566.712 491.54 566.748 491.678 566.756C491.816 566.764 491.954 566.743 492.083 566.694C492.266 566.632 492.427 566.518 492.548 566.368L496.42 561.593C496.519 561.466 496.589 561.319 496.625 561.163C496.661 561.006 496.662 560.844 496.628 560.687C496.591 560.531 496.518 560.387 496.415 560.265C496.312 560.143 496.182 560.046 496.035 559.982Z" fill="#0D0D0D"/>
</g>
<g clip-path="url(#clip66_2517_21206)">
<path d="M540.139 550.284L560.219 559.481C560.851 559.762 561.568 559.786 562.218 559.549C562.556 559.437 562.869 559.259 563.137 559.025C563.405 558.79 563.624 558.505 563.781 558.184L569.408 546.094C569.569 545.764 569.659 545.404 569.675 545.037C569.69 544.671 569.629 544.305 569.497 543.962C569.364 543.62 569.162 543.309 568.904 543.048C568.646 542.787 568.336 542.582 567.995 542.447L548.071 533.364L547.981 533.311C546.884 532.852 545.661 532.794 544.527 533.148L536.374 536.116C535.709 536.358 535.167 536.854 534.868 537.496C534.568 538.138 534.536 538.872 534.778 539.537L537.773 547.765C538.241 548.857 539.078 549.749 540.139 550.284ZM542.258 542.525C542.133 542.151 542.121 541.75 542.224 541.369C542.326 540.989 542.538 540.648 542.834 540.388C543.129 540.128 543.495 539.96 543.885 539.907C544.275 539.853 544.672 539.916 545.027 540.087C545.381 540.258 545.677 540.53 545.878 540.869C546.079 541.207 546.176 541.597 546.156 541.991C546.137 542.384 546.001 542.762 545.768 543.079C545.534 543.396 545.212 543.637 544.842 543.772C544.591 543.863 544.324 543.903 544.057 543.89C543.789 543.877 543.528 543.81 543.287 543.694C543.046 543.577 542.831 543.414 542.654 543.213C542.477 543.013 542.342 542.779 542.258 542.525Z" fill="#0D0D0D"/>
</g>
<g clip-path="url(#clip67_2517_21206)">
<path d="M636.198 519.03C635.566 519.041 634.965 519.303 634.526 519.758C634.087 520.213 633.846 520.824 633.857 521.456C633.896 523.16 633.488 524.845 632.674 526.343C631.859 527.84 630.666 529.098 629.214 529.992C627.762 530.885 626.101 531.382 624.397 531.434C622.693 531.485 621.005 531.089 619.502 530.286C619.434 530.254 619.372 530.209 619.321 530.154C619.27 530.098 619.231 530.033 619.205 529.962C619.179 529.891 619.168 529.816 619.171 529.741C619.174 529.666 619.193 529.592 619.225 529.523L621.677 524.264C621.776 524.048 621.81 523.807 621.774 523.572C621.738 523.337 621.634 523.118 621.475 522.941C621.316 522.767 621.11 522.644 620.881 522.587C620.653 522.53 620.412 522.542 620.191 522.622L610.214 526.253C609.917 526.361 609.675 526.583 609.541 526.869C609.408 527.156 609.393 527.484 609.501 527.782L613.141 537.78C613.222 538.001 613.368 538.193 613.558 538.331C613.749 538.47 613.976 538.549 614.211 538.559C614.446 538.577 614.682 538.52 614.883 538.396C615.084 538.273 615.241 538.089 615.332 537.871L616.758 534.814C616.844 534.725 616.951 534.66 617.07 534.624C617.146 534.597 617.227 534.586 617.307 534.592C617.388 534.598 617.467 534.619 617.538 534.656C619.776 535.791 622.27 536.326 624.776 536.21C627.283 536.095 629.716 535.332 631.84 533.997C633.964 532.661 635.706 530.798 636.897 528.59C638.087 526.381 638.685 523.902 638.633 521.393C638.63 521.078 638.564 520.766 638.44 520.476C638.316 520.186 638.135 519.923 637.909 519.703C637.683 519.483 637.415 519.311 637.121 519.195C636.827 519.079 636.514 519.023 636.198 519.03Z" fill="#0D0D0D"/>
<path d="M633.758 503.745C633.677 503.524 633.531 503.332 633.341 503.194C633.15 503.055 632.923 502.976 632.688 502.967C632.455 502.962 632.225 503.024 632.027 503.146C631.828 503.268 631.668 503.444 631.567 503.654L630.141 506.712C630.064 506.85 629.942 506.957 629.795 507.015C629.718 507.042 629.638 507.053 629.557 507.047C629.476 507.042 629.398 507.02 629.326 506.983C627.087 505.863 624.596 505.341 622.095 505.467C619.594 505.593 617.169 506.363 615.053 507.702C612.938 509.042 611.205 510.906 610.022 513.112C608.839 515.319 608.246 517.794 608.301 520.297C608.295 520.618 608.354 520.936 608.473 521.234C608.593 521.531 608.772 521.801 608.998 522.028C609.225 522.255 609.495 522.434 609.792 522.554C610.09 522.674 610.408 522.733 610.729 522.728C611.049 522.722 611.366 522.652 611.658 522.521C611.951 522.39 612.215 522.202 612.433 521.967C612.652 521.732 612.82 521.456 612.93 521.154C613.039 520.853 613.086 520.532 613.068 520.212C613.034 518.516 613.441 516.84 614.25 515.348C615.06 513.857 616.243 512.602 617.684 511.706C619.125 510.81 620.774 510.304 622.469 510.239C624.165 510.173 625.848 510.55 627.354 511.331C627.491 511.403 627.596 511.523 627.649 511.668C627.702 511.813 627.698 511.973 627.64 512.116L625.273 517.192C625.176 517.404 625.144 517.641 625.181 517.871C625.217 518.102 625.32 518.317 625.478 518.489C625.635 518.662 625.84 518.784 626.066 518.842C626.292 518.899 626.53 518.889 626.751 518.812L636.66 515.205C636.957 515.097 637.199 514.875 637.333 514.588C637.467 514.302 637.481 513.974 637.373 513.676L633.758 503.745Z" fill="#0D0D0D"/>
</g>
</g>
<defs>
<clipPath id="clip0_2517_21206">
<rect width="644" height="562" fill="white"/>
</clipPath>
<clipPath id="clip1_2517_21206">
<rect width="28.7182" height="28.7182" fill="white" transform="translate(25.5723 1.15991) rotate(-20)"/>
</clipPath>
<clipPath id="clip2_2517_21206">
<rect width="28.7182" height="28.7182" fill="white" transform="translate(95.2869 -24.2144) rotate(-20)"/>
</clipPath>
<clipPath id="clip3_2517_21206">
<rect width="28.7182" height="28.7182" fill="white" transform="translate(-20.4053 91.7507) rotate(-20)"/>
</clipPath>
<clipPath id="clip4_2517_21206">
<rect width="28.7182" height="28.7182" fill="white" transform="translate(49.3093 66.3767) rotate(-20)"/>
</clipPath>
<clipPath id="clip5_2517_21206">
<rect width="28.7182" height="28.7182" fill="white" transform="translate(119.024 41.0024) rotate(-20)"/>
</clipPath>
<clipPath id="clip6_2517_21206">
<rect width="28.7182" height="28.7182" fill="white" transform="translate(188.739 15.6284) rotate(-20)"/>
</clipPath>
<clipPath id="clip7_2517_21206">
<rect width="28.7182" height="28.7182" fill="white" transform="translate(258.453 -9.74561) rotate(-20)"/>
</clipPath>
<clipPath id="clip8_2517_21206">
<rect width="28.7182" height="28.7182" fill="white" transform="translate(3.33179 156.968) rotate(-20)"/>
</clipPath>
<clipPath id="clip9_2517_21206">
<rect width="28.7182" height="28.7182" fill="white" transform="translate(73.0464 131.594) rotate(-20)"/>
</clipPath>
<clipPath id="clip10_2517_21206">
<rect width="28.7182" height="28.7182" fill="white" transform="translate(142.761 106.219) rotate(-20)"/>
</clipPath>
<clipPath id="clip11_2517_21206">
<rect width="28.7182" height="28.7182" fill="white" transform="translate(212.476 80.8455) rotate(-20)"/>
</clipPath>
<clipPath id="clip12_2517_21206">
<rect width="28.7182" height="28.7182" fill="white" transform="translate(282.19 55.4714) rotate(-20)"/>
</clipPath>
<clipPath id="clip13_2517_21206">
<rect width="28.7182" height="28.7182" fill="white" transform="translate(351.905 30.0974) rotate(-20)"/>
</clipPath>
<clipPath id="clip14_2517_21206">
<rect width="28.7182" height="28.7182" fill="white" transform="translate(491.334 -20.6506) rotate(-20)"/>
</clipPath>
<clipPath id="clip15_2517_21206">
<rect width="28.7182" height="28.7182" fill="white" transform="translate(34.4353 242.425) rotate(-20)"/>
</clipPath>
<clipPath id="clip16_2517_21206">
<rect width="28.7182" height="28.7182" fill="white" transform="translate(104.15 217.051) rotate(-20)"/>
</clipPath>
<clipPath id="clip17_2517_21206">
<rect width="28.7182" height="28.7182" fill="white" transform="translate(173.865 191.677) rotate(-20)"/>
</clipPath>
<clipPath id="clip18_2517_21206">
<rect width="28.7182" height="28.7182" fill="white" transform="translate(243.579 166.302) rotate(-20)"/>
</clipPath>
<clipPath id="clip19_2517_21206">
<rect width="28.7182" height="28.7182" fill="white" transform="translate(452.723 90.1804) rotate(-20)"/>
</clipPath>
<clipPath id="clip20_2517_21206">
<rect width="28.7182" height="28.7182" fill="white" transform="translate(522.438 64.8064) rotate(-20)"/>
</clipPath>
<clipPath id="clip21_2517_21206">
<rect width="28.7182" height="28.7182" fill="white" transform="translate(-11.5425 333.016) rotate(-20)"/>
</clipPath>
<clipPath id="clip22_2517_21206">
<rect width="28.7182" height="28.7182" fill="white" transform="translate(58.1724 307.642) rotate(-20)"/>
</clipPath>
<clipPath id="clip23_2517_21206">
<rect width="28.7182" height="28.7182" fill="white" transform="translate(127.887 282.268) rotate(-20)"/>
</clipPath>
<clipPath id="clip24_2517_21206">
<rect width="28.7182" height="28.7182" fill="white" transform="translate(197.602 256.894) rotate(-20)"/>
</clipPath>
<clipPath id="clip25_2517_21206">
<rect width="28.7182" height="28.7182" fill="white" transform="translate(267.316 231.52) rotate(-20)"/>
</clipPath>
<clipPath id="clip26_2517_21206">
<rect width="28.7182" height="28.7182" fill="white" transform="translate(337.031 206.146) rotate(-20)"/>
</clipPath>
<clipPath id="clip27_2517_21206">
<rect width="28.7182" height="28.7182" fill="white" transform="translate(406.746 180.771) rotate(-20)"/>
</clipPath>
<clipPath id="clip28_2517_21206">
<rect width="28.7182" height="28.7182" fill="white" transform="translate(476.46 155.397) rotate(-20)"/>
</clipPath>
<clipPath id="clip29_2517_21206">
<rect width="28.7182" height="28.7182" fill="white" transform="translate(546.175 130.023) rotate(-20)"/>
</clipPath>
<clipPath id="clip30_2517_21206">
<rect width="28.7182" height="28.7182" fill="white" transform="translate(615.89 104.649) rotate(-20)"/>
</clipPath>
<clipPath id="clip31_2517_21206">
<rect width="28.7182" height="28.7182" fill="white" transform="translate(12.1946 398.233) rotate(-20)"/>
</clipPath>
<clipPath id="clip32_2517_21206">
<rect width="28.7182" height="28.7182" fill="white" transform="translate(81.9094 372.859) rotate(-20)"/>
</clipPath>
<clipPath id="clip33_2517_21206">
<rect width="28.7182" height="28.7182" fill="white" transform="translate(151.624 347.485) rotate(-20)"/>
</clipPath>
<clipPath id="clip34_2517_21206">
<rect width="28.7182" height="28.7182" fill="white" transform="translate(221.339 322.11) rotate(-20)"/>
</clipPath>
<clipPath id="clip35_2517_21206">
<rect width="28.7182" height="28.7182" fill="white" transform="translate(291.053 296.736) rotate(-20)"/>
</clipPath>
<clipPath id="clip36_2517_21206">
<rect width="28.7182" height="28.7182" fill="white" transform="translate(360.768 271.362) rotate(-20)"/>
</clipPath>
<clipPath id="clip37_2517_21206">
<rect width="28.7182" height="28.7182" fill="white" transform="translate(430.483 245.988) rotate(-20)"/>
</clipPath>
<clipPath id="clip38_2517_21206">
<rect width="28.7182" height="28.7182" fill="white" transform="translate(500.197 220.614) rotate(-20)"/>
</clipPath>
<clipPath id="clip39_2517_21206">
<rect width="28.7182" height="28.7182" fill="white" transform="translate(569.912 195.24) rotate(-20)"/>
</clipPath>
<clipPath id="clip40_2517_21206">
<rect width="28.7182" height="28.7182" fill="white" transform="translate(639.627 169.866) rotate(-20)"/>
</clipPath>
<clipPath id="clip41_2517_21206">
<rect width="28.7182" height="28.7182" fill="white" transform="translate(35.9316 463.45) rotate(-20)"/>
</clipPath>
<clipPath id="clip42_2517_21206">
<rect width="28.7182" height="28.7182" fill="white" transform="translate(105.646 438.076) rotate(-20)"/>
</clipPath>
<clipPath id="clip43_2517_21206">
<rect width="28.7182" height="28.7182" fill="white" transform="translate(175.361 412.702) rotate(-20)"/>
</clipPath>
<clipPath id="clip44_2517_21206">
<rect width="28.7182" height="28.7182" fill="white" transform="translate(245.076 387.327) rotate(-20)"/>
</clipPath>
<clipPath id="clip45_2517_21206">
<rect width="28.7182" height="28.7182" fill="white" transform="translate(314.79 361.953) rotate(-20)"/>
</clipPath>
<clipPath id="clip46_2517_21206">
<rect width="28.7182" height="28.7182" fill="white" transform="translate(384.505 336.579) rotate(-20)"/>
</clipPath>
<clipPath id="clip47_2517_21206">
<rect width="28.7182" height="28.7182" fill="white" transform="translate(454.22 311.205) rotate(-20)"/>
</clipPath>
<clipPath id="clip48_2517_21206">
<rect width="28.7182" height="28.7182" fill="white" transform="translate(523.934 285.831) rotate(-20)"/>
</clipPath>
<clipPath id="clip49_2517_21206">
<rect width="28.7182" height="28.7182" fill="white" transform="translate(593.649 260.457) rotate(-20)"/>
</clipPath>
<clipPath id="clip50_2517_21206">
<rect width="31.1114" height="31.1114" fill="white" transform="translate(64.7864 549.726) rotate(-20)"/>
</clipPath>
<clipPath id="clip51_2517_21206">
<rect width="31.1114" height="31.1114" fill="white" transform="translate(134.501 524.352) rotate(-20)"/>
</clipPath>
<clipPath id="clip52_2517_21206">
<rect width="31.1114" height="31.1114" fill="white" transform="translate(204.216 498.978) rotate(-20)"/>
</clipPath>
<clipPath id="clip53_2517_21206">
<rect width="31.1114" height="31.1114" fill="white" transform="translate(273.93 473.603) rotate(-20)"/>
</clipPath>
<clipPath id="clip54_2517_21206">
<rect width="31.1114" height="31.1114" fill="white" transform="translate(343.645 448.229) rotate(-20)"/>
</clipPath>
<clipPath id="clip55_2517_21206">
<rect width="31.1114" height="31.1114" fill="white" transform="translate(413.36 422.855) rotate(-20)"/>
</clipPath>
<clipPath id="clip56_2517_21206">
<rect width="31.1114" height="31.1114" fill="white" transform="translate(483.074 397.481) rotate(-20)"/>
</clipPath>
<clipPath id="clip57_2517_21206">
<rect width="31.1114" height="31.1114" fill="white" transform="translate(552.789 372.107) rotate(-20)"/>
</clipPath>
<clipPath id="clip58_2517_21206">
<rect width="31.1114" height="31.1114" fill="white" transform="translate(622.504 346.733) rotate(-20)"/>
</clipPath>
<clipPath id="clip59_2517_21206">
<rect width="31.1114" height="31.1114" fill="white" transform="translate(229.59 568.692) rotate(-20)"/>
</clipPath>
<clipPath id="clip60_2517_21206">
<rect width="31.1114" height="31.1114" fill="white" transform="translate(299.304 543.318) rotate(-20)"/>
</clipPath>
<clipPath id="clip61_2517_21206">
<rect width="31.1114" height="31.1114" fill="white" transform="translate(369.019 517.944) rotate(-20)"/>
</clipPath>
<clipPath id="clip62_2517_21206">
<rect width="31.1114" height="31.1114" fill="white" transform="translate(438.734 492.57) rotate(-20)"/>
</clipPath>
<clipPath id="clip63_2517_21206">
<rect width="31.1114" height="31.1114" fill="white" transform="translate(508.448 467.196) rotate(-20)"/>
</clipPath>
<clipPath id="clip64_2517_21206">
<rect width="31.1114" height="31.1114" fill="white" transform="translate(578.163 441.822) rotate(-20)"/>
</clipPath>
<clipPath id="clip65_2517_21206">
<rect width="31.1114" height="31.1114" fill="white" transform="translate(464.108 562.285) rotate(-20)"/>
</clipPath>
<clipPath id="clip66_2517_21206">
<rect width="31.1114" height="31.1114" fill="white" transform="translate(533.823 536.911) rotate(-20)"/>
</clipPath>
<clipPath id="clip67_2517_21206">
<rect width="31.1114" height="31.1114" fill="white" transform="translate(603.537 511.537) rotate(-20)"/>
</clipPath>
</defs>
</svg>
