<svg width="76" height="76" viewBox="0 0 76 76" fill="none" xmlns="http://www.w3.org/2000/svg">
<path d="M7.05426 12.588L7.88822 13.1398L7.05426 12.588ZM12.5865 7.05572L13.1383 7.88969L12.5865 7.05572ZM63.4111 7.05572L62.8593 7.88969L62.8593 7.88969L63.4111 7.05572ZM68.9434 12.588L69.7774 12.0362L69.7774 12.0362L68.9434 12.588ZM68.9434 63.4126L68.1094 62.8608L68.1094 62.8608L68.9434 63.4126ZM63.4111 68.9449L62.8593 68.1109L62.8593 68.1109L63.4111 68.9449ZM12.5865 68.9449L12.0347 69.7788L12.0347 69.7788L12.5865 68.9449ZM7.05426 63.4126L7.88822 62.8608L7.88822 62.8608L7.05426 63.4126ZM6.22029 12.0362C4.46632 14.687 3.62566 17.8068 3.21081 21.9156C2.79764 26.0079 2.79883 31.1902 2.79883 38.0003H4.79883C4.79883 31.1489 4.80002 26.085 5.2007 22.1165C5.59971 18.1645 6.38676 15.409 7.88822 13.1398L6.22029 12.0362ZM12.0347 6.22175C9.72564 7.7496 7.74814 9.72711 6.22029 12.0362L7.88822 13.1398C9.26779 11.0548 11.0534 9.26925 13.1383 7.88969L12.0347 6.22175ZM37.9988 2.80029C31.1887 2.80029 26.0064 2.7991 21.9142 3.21228C17.8054 3.62712 14.6855 4.46779 12.0347 6.22175L13.1383 7.88969C15.4075 6.38823 18.1631 5.60118 22.1151 5.20216C26.0836 4.80148 31.1474 4.80029 37.9988 4.80029V2.80029ZM63.9629 6.22175C61.3121 4.46779 58.1923 3.62712 54.0835 3.21228C49.9912 2.7991 44.8089 2.80029 37.9988 2.80029V4.80029C44.8502 4.80029 49.9141 4.80148 53.8826 5.20216C57.8346 5.60118 60.5901 6.38823 62.8593 7.88969L63.9629 6.22175ZM69.7774 12.0362C68.2495 9.72711 66.272 7.7496 63.9629 6.22175L62.8593 7.88969C64.9443 9.26925 66.7299 11.0548 68.1094 13.1398L69.7774 12.0362ZM73.1988 38.0003C73.1988 31.1902 73.2 26.0079 72.7868 21.9156C72.372 17.8068 71.5313 14.687 69.7774 12.0362L68.1094 13.1398C69.6109 15.409 70.3979 18.1645 70.797 22.1165C71.1976 26.085 71.1988 31.1489 71.1988 38.0003H73.1988ZM69.7774 63.9644C71.5313 61.3136 72.372 58.1937 72.7868 54.085C73.2 49.9927 73.1988 44.8104 73.1988 38.0003H71.1988C71.1988 44.8517 71.1976 49.9156 70.797 53.8841C70.3979 57.8361 69.6109 60.5916 68.1094 62.8608L69.7774 63.9644ZM63.9629 69.7788C66.272 68.251 68.2495 66.2735 69.7774 63.9644L68.1094 62.8608C66.7299 64.9457 64.9443 66.7313 62.8593 68.1109L63.9629 69.7788ZM37.9988 73.2003C44.8089 73.2003 49.9912 73.2015 54.0835 72.7883C58.1923 72.3735 61.3121 71.5328 63.9629 69.7788L62.8593 68.1109C60.5901 69.6124 57.8346 70.3994 53.8826 70.7984C49.9141 71.1991 44.8502 71.2003 37.9988 71.2003V73.2003ZM12.0347 69.7788C14.6855 71.5328 17.8054 72.3735 21.9142 72.7883C26.0064 73.2015 31.1887 73.2003 37.9988 73.2003V71.2003C31.1474 71.2003 26.0836 71.1991 22.1151 70.7984C18.1631 70.3994 15.4075 69.6124 13.1383 68.1109L12.0347 69.7788ZM6.22029 63.9644C7.74814 66.2735 9.72564 68.251 12.0347 69.7788L13.1383 68.1109C11.0534 66.7313 9.26779 64.9458 7.88822 62.8608L6.22029 63.9644ZM2.79883 38.0003C2.79883 44.8104 2.79764 49.9927 3.21081 54.085C3.62566 58.1937 4.46632 61.3136 6.22029 63.9644L7.88822 62.8608C6.38676 60.5916 5.59971 57.8361 5.2007 53.8841C4.80002 49.9156 4.79883 44.8517 4.79883 38.0003H2.79883ZM37.9964 56.7068C48.3273 56.7068 56.7021 48.332 56.7021 38.0011H54.7021C54.7021 47.2274 47.2227 54.7068 37.9964 54.7068V56.7068ZM19.2906 38.0011C19.2906 48.332 27.6655 56.7068 37.9964 56.7068V54.7068C28.77 54.7068 21.2906 47.2274 21.2906 38.0011H19.2906ZM37.9964 19.2953C27.6655 19.2953 19.2906 27.6702 19.2906 38.0011H21.2906C21.2906 28.7747 28.77 21.2953 37.9964 21.2953V19.2953ZM56.7021 38.0011C56.7021 27.6702 48.3273 19.2953 37.9964 19.2953V21.2953C47.2227 21.2953 54.7021 28.7747 54.7021 38.0011H56.7021ZM48.7118 38.0011C48.7118 43.919 43.9143 48.7165 37.9964 48.7165V50.7165C45.0189 50.7165 50.7118 45.0236 50.7118 38.0011H48.7118ZM37.9964 27.2857C43.9143 27.2857 48.7118 32.0831 48.7118 38.0011H50.7118C50.7118 30.9785 45.0189 25.2857 37.9964 25.2857V27.2857ZM27.281 38.0011C27.281 32.0831 32.0784 27.2857 37.9964 27.2857V25.2857C30.9739 25.2857 25.281 30.9785 25.281 38.0011H27.281ZM37.9964 48.7165C32.0784 48.7165 27.281 43.919 27.281 38.0011H25.281C25.281 45.0236 30.9739 50.7165 37.9964 50.7165V48.7165ZM59.5624 19.4051C59.5624 21.1505 58.1475 22.5654 56.4021 22.5654V24.5654C59.2521 24.5654 61.5624 22.255 61.5624 19.4051H59.5624ZM56.4021 16.2447C58.1475 16.2447 59.5624 17.6597 59.5624 19.4051H61.5624C61.5624 16.5551 59.2521 14.2447 56.4021 14.2447V16.2447ZM53.2418 19.4051C53.2418 17.6597 54.6567 16.2447 56.4021 16.2447V14.2447C53.5521 14.2447 51.2418 16.5551 51.2418 19.4051H53.2418ZM56.4021 22.5654C54.6567 22.5654 53.2418 21.1505 53.2418 19.4051H51.2418C51.2418 22.255 53.5521 24.5654 56.4021 24.5654V22.5654Z" fill="#0D0D0D"/>
</svg>
