<svg width="76" height="76" viewBox="0 0 76 76" fill="none" xmlns="http://www.w3.org/2000/svg">
<path d="M6.78885 6.67276L6.78887 6.67275C8.11288 5.44741 9.85798 4.80029 12.1177 4.80029C14.3329 4.80029 16.0308 5.4359 17.3093 6.63488C18.6272 7.87351 19.3046 9.48535 19.3046 11.5648C19.3046 13.4023 18.6648 14.8903 17.3757 16.0995L17.375 16.1001C16.0538 17.3417 14.2907 18.0003 11.9857 18.0003H11.9197C9.71289 18.0003 8.01868 17.3481 6.73888 16.1101C5.44844 14.8619 4.79883 13.3059 4.79883 11.3674C4.79883 9.43851 5.463 7.89974 6.78885 6.67276ZM41.0923 30.9425V31.0025L40.4058 32.3708H42.0262H42.0923H43.0923V31.5399C46.068 27.1109 50.1281 24.9353 55.3629 24.9353C60.1792 24.9353 63.971 26.52 66.8406 29.6454C69.6922 32.7513 71.1988 37.3935 71.1988 43.7414V67.9431H58.5417V45.4522C58.5417 42.0453 57.913 39.3082 56.4953 37.4032C55.0363 35.4429 52.8589 34.5163 50.1471 34.5163C48.0631 34.5163 46.2537 35.0884 44.7915 36.29C43.4118 37.4238 42.3772 38.8176 41.6978 40.4606C41.2706 41.4738 41.0923 42.8125 41.0923 44.3994V67.9431H28.4417C28.5253 55.1788 28.5672 45.225 28.5672 38.0825C28.5672 32.0851 28.5379 28.043 28.4774 25.9882H41.0923V30.9425ZM5.65713 67.9431V25.9882H18.3143V67.9431H5.65713Z" stroke="#0D0D0D" stroke-width="2"/>
</svg>
