<svg width="90" height="90" viewBox="0 0 90 90" fill="none" xmlns="http://www.w3.org/2000/svg">
<path d="M70.3125 36.5625H19.6875C16.5809 36.5625 14.0625 39.0809 14.0625 42.1875V81.5625C14.0625 84.6691 16.5809 87.1875 19.6875 87.1875H70.3125C73.4191 87.1875 75.9375 84.6691 75.9375 81.5625V42.1875C75.9375 39.0809 73.4191 36.5625 70.3125 36.5625Z" stroke="#212121" stroke-width="3" stroke-linecap="round" stroke-linejoin="round"/>
<path d="M25.3125 36.5625V22.5C25.3125 17.2786 27.3867 12.271 31.0788 8.57884C34.771 4.88671 39.7786 2.8125 45 2.8125C50.2214 2.8125 55.229 4.88671 58.9212 8.57884C62.6133 12.271 64.6875 17.2786 64.6875 22.5V36.5625" stroke="#212121" stroke-width="3" stroke-linecap="round" stroke-linejoin="round"/>
<path d="M45 56.25V67.5" stroke="#212121" stroke-width="3" stroke-linecap="round" stroke-linejoin="round"/>
</svg>
