<svg width="76" height="76" viewBox="0 0 76 76" fill="none" xmlns="http://www.w3.org/2000/svg">
<path d="M34.0119 50.5973C34.7869 51.3918 35.751 52.0865 36.8827 52.689C38.8272 53.724 40.9172 54.2423 43.1311 54.2423C49.6947 54.2423 55.0767 51.5467 59.205 46.2307C63.3144 40.9392 65.3306 34.2676 65.3306 26.2985C65.3306 19.942 62.8807 14.4212 58.0479 9.78027C53.188 5.11336 46.9793 2.7998 39.5067 2.7998C34.9274 2.7998 30.7276 3.5716 26.9209 5.13116C23.1408 6.6798 20.0516 8.7172 17.6794 11.2547C15.3485 13.7481 13.5523 16.4707 12.2935 19.408C11.0331 22.3489 10.4004 25.3341 10.4004 28.3501C10.4004 32.0324 11.0948 35.3039 12.5252 38.1356C13.9776 41.011 16.1745 43.0645 19.0928 44.2527L19.0961 44.254C19.749 44.5171 20.4426 44.5628 21.0989 44.278C21.8199 43.9651 22.2052 43.3305 22.3508 42.6391C22.4672 42.3064 22.6079 41.7384 22.7706 41.0157C22.9602 40.1727 23.0809 39.729 23.1357 39.5899L23.1524 39.5474L23.1652 39.5037C23.4963 38.3697 23.2054 37.2959 22.4222 36.3897C20.8621 34.4922 20.0595 32.1565 20.0595 29.3075C20.0595 24.4176 21.7504 20.2426 25.1461 16.7365C28.5112 13.262 32.9038 11.5016 38.4126 11.5016C43.3782 11.5016 47.1133 12.849 49.7498 15.4228C52.4087 18.0184 53.7566 21.361 53.7566 25.5463C53.7566 31.2029 52.6086 35.9532 50.3677 39.8535C48.138 43.7343 45.4466 45.4722 42.3105 45.4722C40.4835 45.4722 39.0992 44.8337 38.053 43.576C37.0145 42.3275 36.6676 40.8717 37.0634 39.0994L37.0636 39.0984C37.3275 37.9111 37.7751 36.3374 38.4074 34.3656C39.0478 32.3687 39.5667 30.5914 39.9627 29.0422C40.3646 27.47 40.5751 26.0894 40.5751 24.9308C40.5751 23.0477 40.0517 21.4059 38.9387 20.0817C37.7822 18.7057 36.1761 18.0497 34.2411 18.0497C31.7757 18.0497 29.7164 19.2126 28.0793 21.3476C26.436 23.4906 25.6503 26.1448 25.6503 29.2391V29.2724L25.6525 29.3056L25.7188 30.2996C25.7229 31.0348 25.8556 31.938 26.084 32.9758C26.2918 33.9203 26.5636 34.7634 26.8959 35.5036C24.073 47.4204 22.4103 54.4487 21.9152 56.5712L21.9152 56.5712L21.9134 56.5793C21.6775 57.6301 21.5007 58.7653 21.381 59.9831C21.2627 61.1867 21.1924 62.3001 21.1713 63.3082C21.1502 64.3145 21.1713 65.3622 21.2416 66.4375C21.3104 67.4901 21.3797 68.3586 21.4499 69.0393C21.5187 69.7068 21.5875 70.3331 21.6563 70.9315C21.6905 71.2286 21.7157 71.4529 21.7324 71.6081C21.7408 71.686 21.7467 71.7432 21.7503 71.7821C21.7512 71.7912 21.7518 71.7986 21.7523 71.8044V71.8796L21.7741 71.9822C21.8303 72.2473 21.954 72.524 22.1837 72.7536C22.4134 72.9833 22.69 73.107 22.9551 73.1633C23.2197 73.2194 23.5198 73.2184 23.8197 73.1063C24.1192 72.9943 24.3475 72.798 24.5112 72.578C24.5119 72.577 24.5126 72.5761 24.5133 72.5751L24.9019 72.057C25.1884 71.7189 25.4898 71.3323 25.8106 70.9024C26.1458 70.453 26.5321 69.8978 26.9653 69.2582C27.4065 68.607 27.8556 67.9053 28.2985 67.1532C28.7352 66.4115 29.1812 65.6241 29.6214 64.7856C30.0656 63.9395 30.483 63.0555 30.8588 62.1338C31.2346 61.212 31.5508 60.2941 31.7897 59.3749L31.7912 59.3689L34.0119 50.5973Z" stroke="#0D0D0D" stroke-width="2"/>
</svg>
