<svg width="644" height="562" viewBox="0 0 644 562" fill="none" xmlns="http://www.w3.org/2000/svg">
<g clip-path="url(#clip0_2517_22135)">
<rect width="644" height="562" fill="#FAFAFA"/>
<g filter="url(#filter0_d_2517_22135)">
<g clip-path="url(#clip1_2517_22135)">
<rect width="530.888" height="287.257" transform="translate(-10 64)" fill="white"/>
<mask id="mask0_2517_22135" style="mask-type:alpha" maskUnits="userSpaceOnUse" x="85" y="94" width="341" height="114">
<rect x="85.8196" y="94.7954" width="339.248" height="112.622" fill="#D9D9D9"/>
</mask>
<g mask="url(#mask0_2517_22135)">
<rect width="339.376" height="113.125" transform="translate(85.7559 94.5437)" fill="#0D0D0D"/>
<path d="M225.491 48.6294L324.096 147.235" stroke="white" stroke-width="0.386841"/>
<path d="M177.742 92.9971L90.3945 180.344" stroke="white" stroke-width="0.386841"/>
<path d="M156.201 74.7698L68.8535 162.117" stroke="white" stroke-width="0.386841"/>
<path d="M272.52 90.3606L185.173 177.708" stroke="url(#paint0_linear_2517_22135)" stroke-width="0.386841"/>
<path d="M260.258 134.034L172.911 221.381" stroke="url(#paint1_linear_2517_22135)" stroke-width="0.386841"/>
<path d="M355.219 86.1567L267.872 173.504" stroke="url(#paint2_linear_2517_22135)" stroke-width="0.386841"/>
<path d="M330.889 156.906L243.541 244.253" stroke="url(#paint3_linear_2517_22135)" stroke-width="0.386841"/>
<path d="M414.237 89.5796L303.237 200.58" stroke="url(#paint4_linear_2517_22135)" stroke-width="0.386841"/>
<path d="M416.916 106.617L305.916 217.617" stroke="white" stroke-width="0.386841"/>
<path d="M469.737 127.779L358.737 238.779" stroke="white" stroke-width="0.386841"/>
<path d="M232.982 88.3977L105.817 215.563" stroke="white" stroke-width="0.386841"/>
<path d="M157.726 72.906L256.331 171.511" stroke="url(#paint5_linear_2517_22135)" stroke-width="0.386841"/>
<path d="M100.242 54.5569L198.847 153.162" stroke="url(#paint6_linear_2517_22135)" stroke-width="0.386841"/>
<path d="M95.6023 136.671L194.208 235.276" stroke="url(#paint7_linear_2517_22135)" stroke-width="0.386841"/>
<path d="M256.614 140.174L355.219 238.779" stroke="url(#paint8_linear_2517_22135)" stroke-width="0.386841"/>
<path d="M315.632 88.3977L414.237 187.003" stroke="white" stroke-width="0.386841"/>
<path d="M323.841 89.5796L196.676 216.745" stroke="white" stroke-width="0.386841"/>
<g filter="url(#filter1_d_2517_22135)">
<rect width="71.8651" height="15.6083" transform="translate(345.808 184.995)" fill="white"/>
<path fill-rule="evenodd" clip-rule="evenodd" d="M355.438 191.754H352.628V196.677H355.438V191.754ZM355.438 191.169V189.133L349.124 191.14V196.677H352.044V191.169L355.438 191.169ZM356.022 191.754V196.677H358.1V191.754H356.022ZM356.022 191.169H358.684V197.261H348.54V190.714L356.022 188.336V191.169Z" fill="#0D0D0D"/>
<path d="M367.111 195.299H367.837L365.809 190.153H365.007L362.986 195.299H363.675L364.159 194.065H366.626L367.111 195.299ZM365.241 191.28L365.393 190.826L365.544 191.28L366.414 193.505H364.371L365.241 191.28ZM369.03 195.299H369.727V193.142H370.816C371.437 193.142 371.694 193.263 371.846 193.906L372.171 195.299H372.905L372.519 193.77C372.39 193.263 372.216 192.983 371.883 192.832C372.368 192.612 372.655 192.196 372.655 191.606C372.655 190.713 371.967 190.153 370.884 190.153H369.03V195.299ZM370.869 190.72C371.535 190.72 371.936 191.076 371.936 191.644C371.936 192.211 371.535 192.574 370.854 192.574H369.727V190.72H370.869ZM378.43 191.636C378.18 190.607 377.333 190.062 376.341 190.062C374.888 190.062 374.003 191.091 374.003 192.733C374.003 194.383 374.873 195.39 376.311 195.39C377.295 195.39 378.135 194.822 378.422 193.846H377.688C377.469 194.466 376.954 194.792 376.319 194.792C375.304 194.792 374.714 194.02 374.714 192.733C374.714 191.447 375.312 190.66 376.319 190.66C376.977 190.66 377.514 191.008 377.703 191.636H378.43ZM379.797 195.299H380.493V192.93H383.187V195.299H383.884V190.153H383.187V192.363H380.493V190.153H379.797V195.299ZM385.52 195.299H386.217V190.153H385.52V195.299ZM389.259 195.299H389.955V190.743H391.719V190.153H387.496V190.743H389.259V195.299ZM392.999 195.299H396.487V194.731H393.695V192.915H396.207V192.347H393.695V190.72H396.487V190.153H392.999V195.299ZM402.103 191.636C401.853 190.607 401.005 190.062 400.014 190.062C398.561 190.062 397.675 191.091 397.675 192.733C397.675 194.383 398.546 195.39 399.984 195.39C400.967 195.39 401.807 194.822 402.095 193.846H401.361C401.141 194.466 400.627 194.792 399.991 194.792C398.977 194.792 398.387 194.02 398.387 192.733C398.387 191.447 398.985 190.66 399.991 190.66C400.65 190.66 401.187 191.008 401.376 191.636H402.103ZM404.729 195.299H405.426V190.743H407.189V190.153H402.966V190.743H404.729V195.299ZM413.605 195.299H414.414L412.545 192.627L414.278 190.153H413.529L412.417 191.712L412.182 192.083L411.947 191.712L410.812 190.153H410.003L411.743 192.643L409.866 195.299H410.615L411.894 193.513L412.106 193.187L412.318 193.513L413.605 195.299Z" fill="#0D0D0D"/>
</g>
</g>
<circle cx="135.029" cy="206.085" r="39.0022" fill="#FAFAFA" stroke="white" stroke-width="2.2878"/>
<rect x="97.1721" y="168.228" width="75.7749" height="75.7749" rx="37.8874" fill="#0D0D0D"/>
<path fill-rule="evenodd" clip-rule="evenodd" d="M142.63 201.781H130.979V222.2H142.63V201.781ZM142.63 199.358V190.914L116.448 199.235V222.2H128.557V199.358L142.63 199.358ZM145.054 201.781V222.2H153.671V201.781H145.054ZM145.054 199.358H156.093V224.622H114.025V197.469L145.054 187.608V199.358Z" fill="white"/>
<rect x="95.2888" y="71.5505" width="67.1187" height="6.83741" rx="3.4187" fill="#CFCFCF"/>
<rect x="95.2888" y="81.7566" width="33.0335" height="5.70548" rx="2.85274" fill="#EAEAEA"/>
<line x1="85.9752" y1="64" x2="85.9752" y2="351.257" stroke="#EAEAEA" stroke-width="0.566582"/>
<line x1="425.351" y1="64" x2="425.351" y2="351.257" stroke="#EAEAEA" stroke-width="0.566582"/>
<rect x="95.2888" y="257.338" width="109.901" height="10.192" rx="5.09601" fill="#CFCFCF"/>
<rect x="95.2888" y="272.061" width="72.173" height="8.64605" rx="4.32302" fill="#EAEAEA"/>
<rect x="95.2888" y="297.875" width="309.683" height="8.64605" rx="4.32302" fill="#FAFAFA"/>
<rect x="95.2888" y="313.886" width="249.735" height="8.64605" rx="4.32302" fill="#FAFAFA"/>
<circle cx="218.112" cy="262.434" r="6.65157" fill="#1D9BF0"/>
<rect x="352.53" y="214.64" width="62.7604" height="19.1679" rx="9.58393" stroke="#EAEAEA" stroke-width="0.849874"/>
<circle cx="8.61115" cy="85.2569" r="10.8389" fill="#1D9BF0"/>
<path d="M10.7768 80.0353V80.033H11.3806L11.6013 80.077C11.7483 80.1056 11.8819 80.1431 12.0019 80.1895C12.1219 80.2359 12.238 80.29 12.3502 80.3518C12.4625 80.4137 12.5643 80.4767 12.6556 80.5408C12.7462 80.6042 12.8275 80.6715 12.8994 80.7426C12.9706 80.8145 13.0817 80.8331 13.2327 80.7983C13.3836 80.7635 13.5462 80.7152 13.7204 80.6533C13.8946 80.5915 14.0668 80.5219 14.2371 80.4446C14.4074 80.3673 14.5111 80.3182 14.5483 80.2973C14.5847 80.2757 14.604 80.2641 14.6064 80.2626L14.6087 80.2591L14.6203 80.2533L14.6319 80.2475L14.6435 80.2417L14.6551 80.2359L14.6574 80.2324L14.6609 80.2301L14.6644 80.2278L14.6667 80.2243L14.6783 80.2208L14.6899 80.2185L14.6876 80.2359L14.6841 80.2533L14.6783 80.2707L14.6725 80.2881L14.6667 80.2997L14.6609 80.3113L14.6551 80.3286C14.6512 80.3402 14.6474 80.3557 14.6435 80.375C14.6396 80.3944 14.6029 80.4717 14.5332 80.6069C14.4635 80.7422 14.3764 80.8794 14.2719 81.0186C14.1674 81.1577 14.0738 81.2629 13.9909 81.334C13.9073 81.4059 13.852 81.4561 13.8249 81.4847C13.7978 81.5141 13.7649 81.5412 13.7262 81.5659L13.6681 81.6042L13.6565 81.61L13.6449 81.6158L13.6426 81.6192L13.6391 81.6216L13.6356 81.6239L13.6333 81.6274L13.6217 81.6331L13.6101 81.6389L13.6078 81.6424L13.6043 81.6447L13.6008 81.6471L13.5985 81.6505L13.5961 81.654L13.5926 81.6563L13.5892 81.6587L13.5868 81.6621H13.6449L13.97 81.5926C14.1868 81.5462 14.3939 81.4901 14.5912 81.4244L14.9048 81.3201L14.9396 81.3085L14.957 81.3027L14.9686 81.2969L14.9802 81.2911L14.9919 81.2853L15.0035 81.2795L15.0267 81.276L15.0499 81.2737V81.2969L15.0441 81.2992L15.0383 81.3027L15.036 81.3062L15.0325 81.3085L15.029 81.3108L15.0267 81.3143L15.0244 81.3178L15.0209 81.3201L15.0174 81.3224L15.0151 81.3259L15.0128 81.3293L15.0093 81.3317L15.0035 81.3433L14.9977 81.3549L14.9942 81.3572C14.9926 81.3595 14.9435 81.4252 14.8467 81.5543C14.7499 81.6842 14.6977 81.7499 14.6899 81.7514C14.6822 81.7537 14.6714 81.7653 14.6574 81.7862C14.6443 81.8078 14.5622 81.8941 14.4113 82.0448C14.2603 82.1955 14.1125 82.3297 13.9677 82.4472C13.8222 82.5654 13.7486 82.7108 13.7471 82.8832C13.7448 83.0548 13.7359 83.2488 13.7204 83.4653C13.7049 83.6817 13.6759 83.9155 13.6333 84.1668C13.5907 84.418 13.5249 84.7021 13.4359 85.0191C13.3469 85.336 13.2385 85.6452 13.1108 85.9467C12.983 86.2482 12.8495 86.5188 12.7102 86.7584C12.5708 86.998 12.4431 87.201 12.327 87.3672C12.2109 87.5334 12.0928 87.6899 11.9728 87.8368C11.8528 87.9837 11.7011 88.1491 11.5177 88.3331C11.3334 88.5163 11.2328 88.6168 11.2158 88.6346C11.198 88.6516 11.1221 88.715 10.9882 88.8247C10.855 88.9353 10.7118 89.0458 10.5585 89.1564C10.406 89.2661 10.2659 89.3577 10.1382 89.4312C10.0105 89.5046 9.85642 89.5885 9.67605 89.6828C9.49646 89.7779 9.30215 89.866 9.09314 89.9472C8.88413 90.0284 8.66351 90.1037 8.43128 90.1733C8.19905 90.2429 7.97456 90.297 7.7578 90.3356C7.54106 90.3743 7.29528 90.4071 7.02046 90.4342L6.60825 90.4748V90.4806H5.8535V90.4748L5.7548 90.469C5.689 90.4651 5.63481 90.4613 5.59223 90.4574C5.54967 90.4535 5.38903 90.4323 5.11035 90.3936C4.83167 90.355 4.61299 90.3163 4.45429 90.2777C4.29561 90.239 4.0595 90.1656 3.74598 90.0573C3.43247 89.9491 3.16424 89.8397 2.9413 89.7292C2.71913 89.6194 2.57979 89.5498 2.52328 89.5205C2.46754 89.4919 2.40484 89.4563 2.33517 89.4138L2.23067 89.35L2.22835 89.3465L2.22486 89.3442L2.22138 89.3419L2.21905 89.3384L2.20744 89.3326L2.19583 89.3268L2.19352 89.3233L2.19002 89.321L2.18654 89.3187L2.18422 89.3152L2.18191 89.3117L2.17841 89.3094H2.17261V89.2862L2.18422 89.2886L2.19583 89.292L2.24808 89.2978C2.28292 89.3017 2.37775 89.3075 2.53257 89.3152C2.6874 89.323 2.85189 89.323 3.02606 89.3152C3.20024 89.3075 3.37829 89.2901 3.5602 89.263C3.74212 89.236 3.95693 89.1896 4.20464 89.1239C4.45237 89.0582 4.67995 88.9801 4.88742 88.8897C5.09411 88.7985 5.24118 88.7304 5.32866 88.6856C5.41535 88.6415 5.54773 88.5596 5.72577 88.4398L5.99284 88.26L5.99516 88.2565L5.99864 88.2542L6.00214 88.2519L6.00445 88.2484L6.00677 88.245L6.01025 88.2426L6.01375 88.2403L6.01606 88.2368L6.02767 88.2334L6.03928 88.231L6.0416 88.2194L6.04509 88.2078L6.04858 88.2055L6.05089 88.2021L5.958 88.1963C5.89608 88.1924 5.83608 88.1885 5.77802 88.1847C5.71996 88.1808 5.62901 88.1634 5.50515 88.1325C5.3813 88.1016 5.24776 88.0552 5.10454 87.9933C4.96134 87.9315 4.822 87.858 4.68653 87.773C4.55106 87.688 4.45313 87.6172 4.39275 87.5608C4.33315 87.5051 4.25573 87.4263 4.16052 87.3243C4.06608 87.2215 3.98402 87.1159 3.91435 87.0077C3.84468 86.8995 3.77811 86.7746 3.71464 86.6332L3.61826 86.4221L3.61245 86.4047L3.60664 86.3873L3.60316 86.3757L3.60084 86.3641L3.61826 86.3665L3.63567 86.3699L3.7634 86.3873C3.84856 86.3989 3.98209 86.4028 4.164 86.3989C4.34592 86.3951 4.47171 86.3873 4.54138 86.3757C4.61105 86.3641 4.65363 86.3564 4.66911 86.3526L4.69233 86.3468L4.72136 86.341L4.75039 86.3352L4.75271 86.3317L4.7562 86.3294L4.75969 86.327L4.762 86.3236L4.73878 86.3178L4.71556 86.312L4.69233 86.3062L4.66911 86.3004L4.64589 86.2946C4.63041 86.2907 4.60332 86.283 4.5646 86.2714C4.5259 86.2598 4.4214 86.2173 4.25109 86.1438C4.08079 86.0704 3.94532 85.9989 3.84468 85.9293C3.7438 85.8595 3.6476 85.7832 3.55671 85.7009C3.46614 85.6174 3.36668 85.5099 3.2583 85.3785C3.14992 85.2471 3.05316 85.0944 2.968 84.9205C2.88286 84.7466 2.81899 84.5804 2.77641 84.4219C2.734 84.2643 2.70602 84.1033 2.69282 83.9407L2.67191 83.6972L2.68352 83.6995L2.69513 83.703L2.70674 83.7088L2.71835 83.7146L2.72997 83.7204L2.74158 83.7262L2.92156 83.8073C3.04155 83.8614 3.19056 83.9078 3.36861 83.9465C3.54666 83.9851 3.65309 84.0064 3.68793 84.0102L3.74018 84.016H3.84468L3.84237 84.0126L3.83888 84.0102L3.83539 84.0079L3.83307 84.0044L3.83076 84.001L3.82727 83.9986L3.82378 83.9963L3.82146 83.9929L3.80985 83.9871L3.79824 83.9813L3.79593 83.9778L3.79243 83.9755L3.78895 83.9731L3.78662 83.9697L3.77501 83.9639L3.7634 83.9581L3.76109 83.9546C3.75877 83.953 3.72548 83.9283 3.66122 83.8804C3.59774 83.8317 3.53117 83.7687 3.4615 83.6914C3.39183 83.6141 3.32216 83.5329 3.25249 83.4479C3.18269 83.3626 3.12052 83.2715 3.0667 83.1754C3.01252 83.0787 2.95523 82.9558 2.89485 82.8066C2.83525 82.6582 2.78996 82.5086 2.75899 82.3579C2.72804 82.2071 2.71062 82.0583 2.70674 81.9114C2.70288 81.7646 2.70674 81.6389 2.71835 81.5346C2.72997 81.4302 2.75319 81.3123 2.78802 81.1809C2.82286 81.0495 2.87318 80.9104 2.93898 80.7635L3.03767 80.5432L3.04348 80.5258L3.04929 80.5084L3.05278 80.5061L3.05509 80.5026L3.05741 80.4991L3.0609 80.4968L3.06439 80.4991L3.0667 80.5026L3.06903 80.5061L3.07251 80.5084L3.076 80.5107L3.07831 80.5142L3.08064 80.5177L3.08412 80.52L3.08993 80.5316L3.09573 80.5432L3.09923 80.5455L3.10154 80.549L3.2583 80.7229C3.3628 80.8389 3.48666 80.9683 3.62987 81.1113C3.77309 81.2544 3.85243 81.3286 3.86791 81.334C3.8834 81.3402 3.90274 81.3579 3.92596 81.3873C3.94919 81.4159 4.0266 81.4843 4.1582 81.5926C4.2898 81.7008 4.46204 81.8264 4.67491 81.9694C4.8878 82.1124 5.1239 82.2535 5.38322 82.3927C5.64256 82.5318 5.92124 82.6574 6.21926 82.7695C6.5173 82.8816 6.72631 82.955 6.84629 82.9898C6.96628 83.0246 7.17142 83.0691 7.46171 83.1232C7.752 83.1773 7.97069 83.2121 8.11776 83.2275C8.26485 83.243 8.36549 83.2519 8.41967 83.2542L8.50095 83.2565L8.49864 83.2391L8.49514 83.2217L8.47192 83.0768C8.45644 82.9802 8.4487 82.8449 8.4487 82.671C8.4487 82.497 8.46225 82.3366 8.48934 82.1897C8.51644 82.0429 8.55708 81.8941 8.61126 81.7433C8.66545 81.5926 8.71848 81.4716 8.77034 81.3804C8.82299 81.2899 8.89188 81.1867 8.97703 81.0708C9.06218 80.9548 9.1725 80.835 9.30796 80.7113C9.44343 80.5876 9.59825 80.4775 9.77242 80.3808C9.9466 80.2842 10.1072 80.2108 10.2543 80.1605C10.4014 80.1103 10.5253 80.0774 10.6259 80.0619C10.7265 80.0465 10.7768 80.0376 10.7768 80.0353Z" fill="white"/>
<circle cx="448.449" cy="86.8506" r="11.1326" fill="#EAEAEA"/>
<g opacity="0.4">
<rect x="464.21" y="79.8677" width="42.3806" height="6.00161" rx="3.0008" fill="#CFCFCF"/>
<rect x="464.21" y="88.8259" width="20.8582" height="5.00805" rx="2.50402" fill="#EAEAEA"/>
</g>
<circle cx="448.449" cy="123.847" r="11.1326" fill="#EAEAEA"/>
<g opacity="0.4">
<rect x="464.21" y="116.864" width="24.3475" height="6.00161" rx="3.0008" fill="#CFCFCF"/>
<rect x="464.21" y="125.822" width="40.6068" height="5.00805" rx="2.50402" fill="#EAEAEA"/>
</g>
<circle cx="448.449" cy="160.843" r="11.1326" fill="#EAEAEA"/>
<g opacity="0.4">
<rect x="464.21" y="153.86" width="42.3806" height="6.00161" rx="3.0008" fill="#CFCFCF"/>
<rect x="464.21" y="162.818" width="20.8582" height="5.00805" rx="2.50402" fill="#EAEAEA"/>
</g>
<circle cx="448.449" cy="197.839" r="11.1326" fill="#EAEAEA"/>
<g opacity="0.4">
<rect x="464.21" y="190.856" width="27.5129" height="6.00161" rx="3.0008" fill="#CFCFCF"/>
<rect x="464.21" y="199.815" width="38.5409" height="5.00805" rx="2.50402" fill="#EAEAEA"/>
</g>
<rect x="15.4575" y="116.94" width="46.7746" height="6.00161" rx="3.0008" fill="#EAEAEA"/>
<circle cx="4.22715" cy="119.941" r="6.37388" fill="#CFCFCF"/>
<rect x="15.4575" y="160.566" width="46.7746" height="6.00161" rx="3.0008" fill="#EAEAEA"/>
<circle cx="4.22715" cy="163.567" r="6.37388" fill="#CFCFCF"/>
<rect x="15.4575" y="138.753" width="34.347" height="6.00161" rx="3.0008" fill="#EAEAEA"/>
<circle cx="4.22715" cy="141.754" r="6.37388" fill="#CFCFCF"/>
<rect x="15.4575" y="182.379" width="34.347" height="6.00161" rx="3.0008" fill="#EAEAEA"/>
<circle cx="4.22715" cy="185.38" r="6.37388" fill="#CFCFCF"/>
</g>
<g clip-path="url(#clip2_2517_22135)">
<rect width="530.888" height="308.787" transform="translate(59.6897 192.614)" fill="white"/>
<mask id="mask1_2517_22135" style="mask-type:alpha" maskUnits="userSpaceOnUse" x="59" y="224" width="532" height="198">
<rect x="59.6021" y="224.608" width="531.063" height="196.565" fill="#D9D9D9"/>
</mask>
<g mask="url(#mask1_2517_22135)">
<rect width="531.273" height="202.143" transform="translate(59.4973 221.816)" fill="#0D0D0D"/>
<g filter="url(#filter2_d_2517_22135)">
<rect width="97.9092" height="21.1429" transform="translate(483.059 391.86)" fill="white"/>
<path fill-rule="evenodd" clip-rule="evenodd" d="M496.104 401.016H492.298V407.685H496.104V401.016ZM496.104 400.224V397.466L487.552 400.184V407.685H491.507V400.224L496.104 400.224ZM496.895 401.016V407.685H499.71V401.016H496.895ZM496.895 400.224H500.501V408.476H486.76V399.607L496.895 396.386V400.224Z" fill="#0D0D0D"/>
<path d="M511.916 405.931H512.901L510.153 398.961H509.067L506.33 405.931H507.262L507.918 404.26H511.26L511.916 405.931ZM509.384 400.488L509.589 399.873L509.794 400.488L510.973 403.502H508.205L509.384 400.488ZM514.517 405.931H515.46V403.01H516.936C517.777 403.01 518.125 403.174 518.33 404.045L518.771 405.931H519.765L519.243 403.861C519.068 403.174 518.832 402.795 518.381 402.59C519.037 402.292 519.427 401.728 519.427 400.929C519.427 399.719 518.494 398.961 517.028 398.961H514.517V405.931ZM517.008 399.729C517.91 399.729 518.453 400.211 518.453 400.98C518.453 401.749 517.91 402.241 516.987 402.241H515.46V399.729H517.008ZM527.249 400.97C526.911 399.576 525.763 398.838 524.42 398.838C522.452 398.838 521.252 400.232 521.252 402.456C521.252 404.691 522.431 406.054 524.379 406.054C525.712 406.054 526.85 405.286 527.239 403.963H526.245C525.947 404.804 525.25 405.245 524.389 405.245C523.016 405.245 522.216 404.199 522.216 402.456C522.216 400.714 523.026 399.647 524.389 399.647C525.281 399.647 526.009 400.119 526.265 400.97H527.249ZM529.101 405.931H530.044V402.723H533.694V405.931H534.637V398.961H533.694V401.954H530.044V398.961H529.101V405.931ZM536.854 405.931H537.797V398.961H536.854V405.931ZM541.919 405.931H542.862V399.76H545.25V398.961H539.53V399.76H541.919V405.931ZM546.984 405.931H551.71V405.163H547.927V402.702H551.33V401.933H547.927V399.729H551.71V398.961H546.984V405.931ZM559.316 400.97C558.978 399.576 557.83 398.838 556.487 398.838C554.519 398.838 553.319 400.232 553.319 402.456C553.319 404.691 554.498 406.054 556.446 406.054C557.778 406.054 558.916 405.286 559.306 403.963H558.312C558.014 404.804 557.317 405.245 556.456 405.245C555.082 405.245 554.283 404.199 554.283 402.456C554.283 400.714 555.093 399.647 556.456 399.647C557.348 399.647 558.076 400.119 558.332 400.97H559.316ZM562.875 405.931H563.818V399.76H566.206V398.961H560.486V399.76H562.875V405.931ZM574.897 405.931H575.994L573.462 402.313L575.809 398.961H574.794L573.288 401.072L572.97 401.575L572.652 401.072L571.114 398.961H570.017L572.375 402.333L569.833 405.931H570.848L572.58 403.512L572.867 403.071L573.154 403.512L574.897 405.931Z" fill="#0D0D0D"/>
</g>
<path d="M289.049 147.813L454.196 312.96" stroke="white" stroke-width="0.647893"/>
<path d="M209.078 222.121L62.7854 368.413" stroke="white" stroke-width="0.647893"/>
<path d="M173 191.594L26.7078 337.886" stroke="white" stroke-width="0.647893"/>
<path d="M367.815 217.706L221.523 363.998" stroke="url(#paint9_linear_2517_22135)" stroke-width="0.647893"/>
<path d="M347.278 290.852L200.986 437.144" stroke="url(#paint10_linear_2517_22135)" stroke-width="0.647893"/>
<path d="M506.322 210.665L360.03 356.957" stroke="url(#paint11_linear_2517_22135)" stroke-width="0.647893"/>
<path d="M465.573 329.158L319.281 475.45" stroke="url(#paint12_linear_2517_22135)" stroke-width="0.647893"/>
<path d="M605.168 216.397L419.261 402.304" stroke="url(#paint13_linear_2517_22135)" stroke-width="0.647893"/>
<path d="M609.655 244.932L423.748 430.839" stroke="white" stroke-width="0.647893"/>
<path d="M698.121 280.374L512.215 466.281" stroke="white" stroke-width="0.647893"/>
<path d="M301.596 214.418L88.6157 427.399" stroke="white" stroke-width="0.647893"/>
<path d="M175.554 188.472L340.701 353.619" stroke="url(#paint14_linear_2517_22135)" stroke-width="0.647893"/>
<path d="M79.2784 157.74L244.426 322.888" stroke="url(#paint15_linear_2517_22135)" stroke-width="0.647893"/>
<path d="M71.5077 295.267L236.655 460.414" stroke="url(#paint16_linear_2517_22135)" stroke-width="0.647893"/>
<path d="M341.175 301.134L506.322 466.281" stroke="url(#paint17_linear_2517_22135)" stroke-width="0.647893"/>
<path d="M440.021 214.418L605.168 379.565" stroke="white" stroke-width="0.647893"/>
<path d="M453.769 216.397L240.788 429.378" stroke="white" stroke-width="0.647893"/>
</g>
<rect x="59.6897" y="192.614" width="530.888" height="31.9938" fill="white"/>
<circle cx="82.3529" cy="208.611" r="9.06532" fill="url(#paint18_linear_2517_22135)"/>
<path d="M83.1823 213.71V209.058H84.8224L85.068 207.245H83.1823V206.088C83.1823 205.563 83.3354 205.205 84.126 205.205L85.1343 205.205V203.583C84.9599 203.561 84.3613 203.512 83.665 203.512C82.2112 203.512 81.2158 204.357 81.2158 205.908V207.245H79.5715V209.058H81.2158V213.71H83.1823V213.71Z" fill="white"/>
<circle cx="105.016" cy="208.611" r="9.06532" fill="#F0F2F5"/>
<circle cx="499.378" cy="208.611" r="9.15597" fill="#E4E6EA"/>
<circle cx="522.222" cy="208.611" r="9.15597" fill="#E4E6EA"/>
<circle cx="545.067" cy="208.611" r="9.15597" fill="#E4E6EA"/>
<circle cx="567.911" cy="208.611" r="9.15597" fill="#E4E6EA"/>
<rect x="396.805" y="463.216" width="176.725" height="22.6479" rx="3.39949" fill="#3277FF"/>
<circle cx="117.031" cy="452.985" r="38.6362" fill="#FAFAFA" stroke="white" stroke-width="2.26633"/>
<rect x="79.5291" y="415.483" width="75.0042" height="75.0042" rx="37.5021" fill="#0D0D0D"/>
<path fill-rule="evenodd" clip-rule="evenodd" d="M124.525 448.695H112.992V468.906H124.525V448.695ZM124.525 446.297V437.939L98.6089 446.175V468.906H110.595V446.297L124.525 446.297ZM126.924 448.695V468.906H135.453V448.695H126.924ZM126.924 446.297H137.851V471.304H96.2109V444.427L126.924 434.667V446.297Z" fill="white"/>
<rect x="170.721" y="451.549" width="64.2353" height="7.11179" rx="3.55589" fill="#CFCFCF"/>
<rect x="170.721" y="468.094" width="127.324" height="7.11179" rx="3.55589" fill="#FAFAFA"/>
<circle cx="244.507" cy="455.104" r="4.44115" fill="#3277FF"/>
</g>
<g clip-path="url(#clip3_2517_22135)">
<rect width="530.888" height="287.257" transform="translate(120.881 347.008)" fill="#FAFAFA"/>
<rect x="161.546" y="389.167" width="450.284" height="317.026" rx="8.21545" fill="white" stroke="#FAFAFA" stroke-width="0.566582"/>
<mask id="mask2_2517_22135" style="mask-type:alpha" maskUnits="userSpaceOnUse" x="161" y="389" width="451" height="317">
<rect x="161.829" y="389.45" width="449.717" height="316.46" rx="7.93215" fill="white"/>
</mask>
<g mask="url(#mask2_2517_22135)">
<mask id="mask3_2517_22135" style="mask-type:alpha" maskUnits="userSpaceOnUse" x="161" y="389" width="451" height="113">
<rect x="161.991" y="389.45" width="449.394" height="111.954" fill="#D9D9D9"/>
</mask>
<g mask="url(#mask3_2517_22135)">
<rect width="449.789" height="112.447" transform="translate(161.794 389.45)" fill="#0D0D0D"/>
<g filter="url(#filter3_d_2517_22135)">
<rect width="71.754" height="15.521" transform="translate(528.548 474.737)" fill="white"/>
<path fill-rule="evenodd" clip-rule="evenodd" d="M538.124 481.458H535.33V486.354H538.124V481.458ZM538.124 480.877V478.853L531.846 480.848V486.354H534.749V480.877L538.124 480.877ZM538.705 481.458V486.354H540.771V481.458H538.705ZM538.705 480.877H541.352V486.935H531.265V480.424L538.705 478.06V480.877Z" fill="#0D0D0D"/>
<path d="M549.732 485.498H550.454L548.438 480.38H547.64L545.631 485.498H546.316L546.797 484.271H549.25L549.732 485.498ZM547.873 481.502L548.024 481.05L548.174 481.502L549.04 483.714H547.008L547.873 481.502ZM551.641 485.498H552.333V483.353H553.417C554.034 483.353 554.29 483.473 554.44 484.113L554.764 485.498H555.494L555.11 483.977C554.982 483.473 554.809 483.195 554.478 483.044C554.96 482.826 555.246 482.412 555.246 481.825C555.246 480.937 554.561 480.38 553.485 480.38H551.641V485.498ZM553.47 480.945C554.132 480.945 554.531 481.298 554.531 481.863C554.531 482.427 554.132 482.788 553.455 482.788H552.333V480.945H553.47ZM560.988 481.855C560.74 480.832 559.897 480.29 558.911 480.29C557.466 480.29 556.586 481.313 556.586 482.946C556.586 484.587 557.451 485.588 558.881 485.588C559.859 485.588 560.694 485.023 560.98 484.053H560.25C560.032 484.67 559.521 484.993 558.888 484.993C557.88 484.993 557.293 484.226 557.293 482.946C557.293 481.667 557.888 480.885 558.888 480.885C559.543 480.885 560.077 481.231 560.266 481.855H560.988ZM562.348 485.498H563.04V483.142H565.719V485.498H566.411V480.38H565.719V482.578H563.04V480.38H562.348V485.498ZM568.039 485.498H568.731V480.38H568.039V485.498ZM571.757 485.498H572.449V480.967H574.202V480.38H570.003V480.967H571.757V485.498ZM575.475 485.498H578.944V484.933H576.167V483.127H578.666V482.563H576.167V480.945H578.944V480.38H575.475V485.498ZM584.528 481.855C584.28 480.832 583.437 480.29 582.451 480.29C581.006 480.29 580.126 481.313 580.126 482.946C580.126 484.587 580.991 485.588 582.421 485.588C583.399 485.588 584.235 485.023 584.521 484.053H583.791C583.572 484.67 583.061 484.993 582.429 484.993C581.42 484.993 580.833 484.226 580.833 482.946C580.833 481.667 581.428 480.885 582.429 480.885C583.083 480.885 583.618 481.231 583.806 481.855H584.528ZM587.14 485.498H587.833V480.967H589.586V480.38H585.387V480.967H587.14V485.498ZM595.966 485.498H596.771L594.912 482.841L596.636 480.38H595.891L594.785 481.931L594.551 482.299L594.318 481.931L593.189 480.38H592.384L594.115 482.856L592.248 485.498H592.994L594.265 483.722L594.476 483.398L594.687 483.722L595.966 485.498Z" fill="#0D0D0D"/>
</g>
<path d="M343.837 306.141L467.483 429.786" stroke="white" stroke-width="0.485077"/>
<path d="M283.963 361.775L174.434 471.304" stroke="white" stroke-width="0.485077"/>
<path d="M256.952 338.919L147.423 448.448" stroke="white" stroke-width="0.485077"/>
<path d="M402.809 358.469L293.281 467.998" stroke="url(#paint19_linear_2517_22135)" stroke-width="0.485077"/>
<path d="M387.434 413.233L277.905 522.762" stroke="url(#paint20_linear_2517_22135)" stroke-width="0.485077"/>
<path d="M506.509 353.198L396.981 462.726" stroke="url(#paint21_linear_2517_22135)" stroke-width="0.485077"/>
<path d="M476 441.914L366.472 551.442" stroke="url(#paint22_linear_2517_22135)" stroke-width="0.485077"/>
<path d="M580.515 357.49L441.327 496.678" stroke="url(#paint23_linear_2517_22135)" stroke-width="0.485077"/>
<path d="M583.875 378.854L444.687 518.042" stroke="white" stroke-width="0.485077"/>
<path d="M650.11 405.389L510.921 544.578" stroke="white" stroke-width="0.485077"/>
<path d="M353.231 356.008L193.773 515.466" stroke="white" stroke-width="0.485077"/>
<path d="M258.864 336.582L382.51 460.228" stroke="url(#paint24_linear_2517_22135)" stroke-width="0.485077"/>
<path d="M186.782 313.573L310.428 437.219" stroke="url(#paint25_linear_2517_22135)" stroke-width="0.485077"/>
<path d="M180.965 416.539L304.61 540.185" stroke="url(#paint26_linear_2517_22135)" stroke-width="0.485077"/>
<path d="M382.864 420.932L506.51 544.577" stroke="url(#paint27_linear_2517_22135)" stroke-width="0.485077"/>
<path d="M456.87 356.008L580.515 479.653" stroke="white" stroke-width="0.485077"/>
<path d="M467.163 357.49L307.705 516.948" stroke="white" stroke-width="0.485077"/>
</g>
</g>
<rect x="120.739" y="346.942" width="530.888" height="30.0413" fill="white"/>
<circle cx="543.78" cy="361.962" r="7.92701" fill="#EFF3F7"/>
<circle cx="563.558" cy="361.962" r="7.92701" fill="#EFF3F7"/>
<circle cx="583.336" cy="361.962" r="7.92701" fill="#EFF3F7"/>
<circle cx="603.114" cy="361.962" r="7.92701" fill="#EFF3F7"/>
<rect x="187.242" y="353.758" width="159.634" height="16.4098" rx="2.26633" fill="#EFF3F7"/>
<rect x="161.758" y="352.047" width="19.8315" height="19.8315" rx="3.96608" fill="#2D64BC"/>
<path d="M166.575 358.234C166.575 357.907 166.69 357.637 166.919 357.425C167.149 357.212 167.448 357.106 167.815 357.106C168.176 357.106 168.468 357.211 168.691 357.42C168.921 357.636 169.036 357.917 169.036 358.264C169.036 358.578 168.924 358.839 168.701 359.049C168.471 359.264 168.169 359.372 167.795 359.372H167.786C167.425 359.372 167.133 359.264 166.909 359.049C166.686 358.833 166.575 358.561 166.575 358.234ZM166.703 366.819V360.265H168.888V366.819H166.703ZM170.099 366.819H172.284V363.159C172.284 362.93 172.311 362.754 172.363 362.63C172.455 362.407 172.594 362.219 172.781 362.065C172.968 361.912 173.203 361.835 173.485 361.835C174.22 361.835 174.588 362.329 174.588 363.316V366.819H176.773V363.061C176.773 362.093 176.543 361.359 176.084 360.859C175.625 360.358 175.018 360.108 174.263 360.108C173.416 360.108 172.757 360.471 172.284 361.197V361.217H172.274L172.284 361.197V360.265H170.099C170.112 360.474 170.119 361.125 170.119 362.217C170.119 363.31 170.112 364.844 170.099 366.819Z" fill="white"/>
<circle cx="222.603" cy="484.179" r="44.833" fill="#FAFAFA" stroke="white" stroke-width="2.26633"/>
<rect x="178.905" y="440.48" width="87.3974" height="87.3974" rx="43.6987" fill="#0D0D0D"/>
<path fill-rule="evenodd" clip-rule="evenodd" d="M231.336 479.18H217.897V502.731H231.336V479.18ZM231.336 476.386V466.646L201.137 476.244V502.731H215.103V476.386L231.336 476.386ZM234.131 479.18V502.731H244.069V479.18H234.131ZM234.131 476.386H246.864V505.524H198.343V474.207L234.131 462.833V476.386Z" fill="white"/>
<rect opacity="0.9" x="175.818" y="541.251" width="82.7804" height="10.7857" rx="5.39285" fill="#6E7191"/>
<rect x="175.818" y="557.112" width="202.995" height="10.7857" rx="5.39285" fill="#EAEAEA"/>
</g>
</g>
</g>
<defs>
<filter id="filter0_d_2517_22135" x="-20" y="58" width="681.768" height="590.265" filterUnits="userSpaceOnUse" color-interpolation-filters="sRGB">
<feFlood flood-opacity="0" result="BackgroundImageFix"/>
<feColorMatrix in="SourceAlpha" type="matrix" values="0 0 0 0 0 0 0 0 0 0 0 0 0 0 0 0 0 0 127 0" result="hardAlpha"/>
<feOffset dy="4"/>
<feGaussianBlur stdDeviation="5"/>
<feComposite in2="hardAlpha" operator="out"/>
<feColorMatrix type="matrix" values="0 0 0 0 0 0 0 0 0 0 0 0 0 0 0 0 0 0 0.12 0"/>
<feBlend mode="normal" in2="BackgroundImageFix" result="effect1_dropShadow_2517_22135"/>
<feBlend mode="normal" in="SourceGraphic" in2="effect1_dropShadow_2517_22135" result="shape"/>
</filter>
<filter id="filter1_d_2517_22135" x="342.97" y="182.63" width="77.541" height="21.2841" filterUnits="userSpaceOnUse" color-interpolation-filters="sRGB">
<feFlood flood-opacity="0" result="BackgroundImageFix"/>
<feColorMatrix in="SourceAlpha" type="matrix" values="0 0 0 0 0 0 0 0 0 0 0 0 0 0 0 0 0 0 127 0" result="hardAlpha"/>
<feOffset dy="0.472979"/>
<feGaussianBlur stdDeviation="1.41894"/>
<feComposite in2="hardAlpha" operator="out"/>
<feColorMatrix type="matrix" values="0 0 0 0 0.078875 0 0 0 0 0.0770833 0 0 0 0 0.166667 0 0 0 0.08 0"/>
<feBlend mode="normal" in2="BackgroundImageFix" result="effect1_dropShadow_2517_22135"/>
<feBlend mode="normal" in="SourceGraphic" in2="effect1_dropShadow_2517_22135" result="shape"/>
</filter>
<filter id="filter2_d_2517_22135" x="479.215" y="388.656" width="105.598" height="28.8312" filterUnits="userSpaceOnUse" color-interpolation-filters="sRGB">
<feFlood flood-opacity="0" result="BackgroundImageFix"/>
<feColorMatrix in="SourceAlpha" type="matrix" values="0 0 0 0 0 0 0 0 0 0 0 0 0 0 0 0 0 0 127 0" result="hardAlpha"/>
<feOffset dy="0.640695"/>
<feGaussianBlur stdDeviation="1.92209"/>
<feComposite in2="hardAlpha" operator="out"/>
<feColorMatrix type="matrix" values="0 0 0 0 0.078875 0 0 0 0 0.0770833 0 0 0 0 0.166667 0 0 0 0.08 0"/>
<feBlend mode="normal" in2="BackgroundImageFix" result="effect1_dropShadow_2517_22135"/>
<feBlend mode="normal" in="SourceGraphic" in2="effect1_dropShadow_2517_22135" result="shape"/>
</filter>
<filter id="filter3_d_2517_22135" x="525.726" y="472.385" width="77.3979" height="21.165" filterUnits="userSpaceOnUse" color-interpolation-filters="sRGB">
<feFlood flood-opacity="0" result="BackgroundImageFix"/>
<feColorMatrix in="SourceAlpha" type="matrix" values="0 0 0 0 0 0 0 0 0 0 0 0 0 0 0 0 0 0 127 0" result="hardAlpha"/>
<feOffset dy="0.470334"/>
<feGaussianBlur stdDeviation="1.411"/>
<feComposite in2="hardAlpha" operator="out"/>
<feColorMatrix type="matrix" values="0 0 0 0 0.078875 0 0 0 0 0.0770833 0 0 0 0 0.166667 0 0 0 0.08 0"/>
<feBlend mode="normal" in2="BackgroundImageFix" result="effect1_dropShadow_2517_22135"/>
<feBlend mode="normal" in="SourceGraphic" in2="effect1_dropShadow_2517_22135" result="shape"/>
</filter>
<linearGradient id="paint0_linear_2517_22135" x1="228.846" y1="90.3606" x2="191.16" y2="186.213" gradientUnits="userSpaceOnUse">
<stop stop-color="white"/>
<stop offset="1" stop-color="white" stop-opacity="0"/>
</linearGradient>
<linearGradient id="paint1_linear_2517_22135" x1="197.126" y1="229.627" x2="256.447" y2="131.532" gradientUnits="userSpaceOnUse">
<stop stop-color="white"/>
<stop offset="1" stop-color="white" stop-opacity="0"/>
</linearGradient>
<linearGradient id="paint2_linear_2517_22135" x1="319.885" y1="76.2439" x2="280.067" y2="176.35" gradientUnits="userSpaceOnUse">
<stop stop-color="white"/>
<stop offset="1" stop-color="white" stop-opacity="0"/>
</linearGradient>
<linearGradient id="paint3_linear_2517_22135" x1="269.04" y1="222.667" x2="330.889" y2="152.41" gradientUnits="userSpaceOnUse">
<stop stop-color="white"/>
<stop offset="1" stop-color="white" stop-opacity="0"/>
</linearGradient>
<linearGradient id="paint4_linear_2517_22135" x1="369.444" y1="75.104" x2="343.345" y2="182.346" gradientUnits="userSpaceOnUse">
<stop stop-color="white"/>
<stop offset="1" stop-color="white" stop-opacity="0"/>
</linearGradient>
<linearGradient id="paint5_linear_2517_22135" x1="182.212" y1="72.906" x2="244.516" y2="171.511" gradientUnits="userSpaceOnUse">
<stop stop-color="white"/>
<stop offset="1" stop-color="white" stop-opacity="0"/>
</linearGradient>
<linearGradient id="paint6_linear_2517_22135" x1="135.485" y1="74.8623" x2="192.817" y2="150.753" gradientUnits="userSpaceOnUse">
<stop stop-color="white"/>
<stop offset="1" stop-color="white" stop-opacity="0"/>
</linearGradient>
<linearGradient id="paint7_linear_2517_22135" x1="183.911" y1="217.498" x2="101.751" y2="157.491" gradientUnits="userSpaceOnUse">
<stop stop-color="white"/>
<stop offset="1" stop-color="white" stop-opacity="0"/>
</linearGradient>
<linearGradient id="paint8_linear_2517_22135" x1="333.929" y1="220.302" x2="275.885" y2="171.792" gradientUnits="userSpaceOnUse">
<stop stop-color="white"/>
<stop offset="1" stop-color="white" stop-opacity="0"/>
</linearGradient>
<linearGradient id="paint9_linear_2517_22135" x1="294.669" y1="217.706" x2="231.551" y2="378.243" gradientUnits="userSpaceOnUse">
<stop stop-color="white"/>
<stop offset="1" stop-color="white" stop-opacity="0"/>
</linearGradient>
<linearGradient id="paint10_linear_2517_22135" x1="241.542" y1="450.954" x2="340.895" y2="286.661" gradientUnits="userSpaceOnUse">
<stop stop-color="white"/>
<stop offset="1" stop-color="white" stop-opacity="0"/>
</linearGradient>
<linearGradient id="paint11_linear_2517_22135" x1="447.144" y1="194.062" x2="380.455" y2="361.723" gradientUnits="userSpaceOnUse">
<stop stop-color="white"/>
<stop offset="1" stop-color="white" stop-opacity="0"/>
</linearGradient>
<linearGradient id="paint12_linear_2517_22135" x1="361.986" y1="439.298" x2="465.573" y2="321.629" gradientUnits="userSpaceOnUse">
<stop stop-color="white"/>
<stop offset="1" stop-color="white" stop-opacity="0"/>
</linearGradient>
<linearGradient id="paint13_linear_2517_22135" x1="530.146" y1="192.153" x2="486.435" y2="371.766" gradientUnits="userSpaceOnUse">
<stop stop-color="white"/>
<stop offset="1" stop-color="white" stop-opacity="0"/>
</linearGradient>
<linearGradient id="paint14_linear_2517_22135" x1="216.565" y1="188.472" x2="320.913" y2="353.619" gradientUnits="userSpaceOnUse">
<stop stop-color="white"/>
<stop offset="1" stop-color="white" stop-opacity="0"/>
</linearGradient>
<linearGradient id="paint15_linear_2517_22135" x1="138.304" y1="191.748" x2="234.326" y2="318.853" gradientUnits="userSpaceOnUse">
<stop stop-color="white"/>
<stop offset="1" stop-color="white" stop-opacity="0"/>
</linearGradient>
<linearGradient id="paint16_linear_2517_22135" x1="219.41" y1="430.64" x2="81.8057" y2="330.137" gradientUnits="userSpaceOnUse">
<stop stop-color="white"/>
<stop offset="1" stop-color="white" stop-opacity="0"/>
</linearGradient>
<linearGradient id="paint17_linear_2517_22135" x1="470.666" y1="435.336" x2="373.451" y2="354.089" gradientUnits="userSpaceOnUse">
<stop stop-color="white"/>
<stop offset="1" stop-color="white" stop-opacity="0"/>
</linearGradient>
<linearGradient id="paint18_linear_2517_22135" x1="82.3529" y1="199.546" x2="82.3529" y2="217.677" gradientUnits="userSpaceOnUse">
<stop stop-color="#50AAF7"/>
<stop offset="1" stop-color="#2A62D9"/>
</linearGradient>
<linearGradient id="paint19_linear_2517_22135" x1="348.045" y1="358.469" x2="300.789" y2="478.663" gradientUnits="userSpaceOnUse">
<stop stop-color="white"/>
<stop offset="1" stop-color="white" stop-opacity="0"/>
</linearGradient>
<linearGradient id="paint20_linear_2517_22135" x1="308.269" y1="533.102" x2="382.654" y2="410.096" gradientUnits="userSpaceOnUse">
<stop stop-color="white"/>
<stop offset="1" stop-color="white" stop-opacity="0"/>
</linearGradient>
<linearGradient id="paint21_linear_2517_22135" x1="462.203" y1="340.767" x2="412.273" y2="466.295" gradientUnits="userSpaceOnUse">
<stop stop-color="white"/>
<stop offset="1" stop-color="white" stop-opacity="0"/>
</linearGradient>
<linearGradient id="paint22_linear_2517_22135" x1="398.445" y1="524.375" x2="476" y2="436.276" gradientUnits="userSpaceOnUse">
<stop stop-color="white"/>
<stop offset="1" stop-color="white" stop-opacity="0"/>
</linearGradient>
<linearGradient id="paint23_linear_2517_22135" x1="524.347" y1="339.338" x2="491.62" y2="473.814" gradientUnits="userSpaceOnUse">
<stop stop-color="white"/>
<stop offset="1" stop-color="white" stop-opacity="0"/>
</linearGradient>
<linearGradient id="paint24_linear_2517_22135" x1="289.569" y1="336.582" x2="367.694" y2="460.228" gradientUnits="userSpaceOnUse">
<stop stop-color="white"/>
<stop offset="1" stop-color="white" stop-opacity="0"/>
</linearGradient>
<linearGradient id="paint25_linear_2517_22135" x1="230.975" y1="339.035" x2="302.867" y2="434.198" gradientUnits="userSpaceOnUse">
<stop stop-color="white"/>
<stop offset="1" stop-color="white" stop-opacity="0"/>
</linearGradient>
<linearGradient id="paint26_linear_2517_22135" x1="291.698" y1="517.893" x2="188.675" y2="442.647" gradientUnits="userSpaceOnUse">
<stop stop-color="white"/>
<stop offset="1" stop-color="white" stop-opacity="0"/>
</linearGradient>
<linearGradient id="paint27_linear_2517_22135" x1="479.814" y1="521.409" x2="407.029" y2="460.579" gradientUnits="userSpaceOnUse">
<stop stop-color="white"/>
<stop offset="1" stop-color="white" stop-opacity="0"/>
</linearGradient>
<clipPath id="clip0_2517_22135">
<rect width="644" height="562" fill="white"/>
</clipPath>
<clipPath id="clip1_2517_22135">
<rect width="530.888" height="287.257" fill="white" transform="translate(-10 64)"/>
</clipPath>
<clipPath id="clip2_2517_22135">
<rect width="530.888" height="308.787" fill="white" transform="translate(59.6897 192.614)"/>
</clipPath>
<clipPath id="clip3_2517_22135">
<rect width="530.888" height="287.257" fill="white" transform="translate(120.881 347.008)"/>
</clipPath>
</defs>
</svg>
