<svg width="76" height="76" viewBox="0 0 76 76" fill="none" xmlns="http://www.w3.org/2000/svg">
<path d="M49.5036 11.4122V11.3999H52.7108L53.8827 11.634C54.6639 11.7859 55.3732 11.985 56.0105 12.2314C56.6479 12.4778 57.2647 12.7652 57.8608 13.0937C58.4571 13.4222 58.9978 13.7568 59.483 14.0976C59.9641 14.4344 60.3958 14.7916 60.7782 15.1693C61.1564 15.5512 61.7465 15.6497 62.5483 15.465C63.3501 15.2802 64.2136 15.0235 65.1387 14.6951C66.0639 14.3666 66.9788 13.9971 67.8834 13.5864C68.788 13.1758 69.339 12.9151 69.5364 12.8042C69.7296 12.6893 69.8324 12.6277 69.8448 12.6194L69.857 12.6009L69.9187 12.5701L69.9804 12.5394L70.0421 12.5086L70.1038 12.4778L70.1161 12.4593L70.1346 12.447L70.1532 12.4346L70.1654 12.4162L70.2271 12.3977L70.2888 12.3854L70.2765 12.4778L70.258 12.5701L70.2271 12.6625L70.1963 12.7549L70.1654 12.8165L70.1346 12.8781L70.1038 12.9705C70.0832 13.0321 70.0627 13.1142 70.0421 13.2169C70.0215 13.3195 69.8262 13.7301 69.4561 14.4487C69.0861 15.1673 68.6235 15.8961 68.0684 16.6352C67.5133 17.3743 67.0158 17.9327 66.5759 18.3105C66.1318 18.6924 65.8378 18.9593 65.6938 19.1112C65.5499 19.2672 65.3752 19.4109 65.1696 19.5424L64.8612 19.7456L64.7995 19.7764L64.7378 19.8072L64.7256 19.8257L64.707 19.838L64.6885 19.8503L64.6762 19.8688L64.6145 19.8996L64.5528 19.9304L64.5405 19.9489L64.522 19.9612L64.5035 19.9735L64.4911 19.992L64.4789 20.0105L64.4603 20.0228L64.4418 20.0351L64.4295 20.0536H64.7378L66.4648 19.684C67.6161 19.4377 68.716 19.14 69.7645 18.7909L71.4298 18.2366L71.6148 18.175L71.7074 18.1442L71.769 18.1134L71.8307 18.0826L71.8924 18.0518L71.9541 18.021L72.0774 18.0026L72.2008 17.9902V18.1134L72.1699 18.1257L72.1391 18.1442L72.1268 18.1627L72.1083 18.175L72.0898 18.1873L72.0774 18.2058L72.0652 18.2243L72.0466 18.2366L72.0281 18.2489L72.0158 18.2674L72.0035 18.2859L71.9849 18.2982L71.9541 18.3598L71.9232 18.4214L71.9047 18.4337C71.8965 18.446 71.6354 18.795 71.1214 19.4808C70.6075 20.1706 70.3299 20.5196 70.2888 20.5278C70.2477 20.5401 70.1901 20.6017 70.1161 20.7126C70.0462 20.8275 69.6103 21.2854 68.8085 22.0861C68.0067 22.8868 67.2215 23.5992 66.4525 24.2233C65.6795 24.8516 65.2889 25.6235 65.2807 26.5392C65.2683 27.4508 65.221 28.4814 65.1387 29.6311C65.0565 30.7809 64.9023 32.0229 64.6762 33.3574C64.4501 34.6919 64.1005 36.2009 63.6277 37.8844C63.1548 39.5679 62.5791 41.2104 61.9007 42.8118C61.2222 44.4132 60.513 45.8503 59.7728 47.1232C59.0327 48.3962 58.3543 49.474 57.7375 50.3568C57.1207 51.2396 56.4937 52.0711 55.8563 52.8513C55.219 53.6315 54.4131 54.5102 53.4386 55.4874C52.46 56.4606 51.9255 56.9944 51.835 57.0888C51.7405 57.1792 51.3375 57.5159 50.6261 58.0989C49.9189 58.6861 49.1582 59.2732 48.344 59.8604C47.534 60.4435 46.7898 60.9301 46.1113 61.3202C45.4329 61.7102 44.6147 62.1557 43.6566 62.6567C42.7027 63.1618 41.6706 63.6299 40.5604 64.061C39.4502 64.4922 38.2783 64.8925 37.0448 65.2621C35.8112 65.6316 34.6188 65.9191 33.4675 66.1243C32.3162 66.3296 31.0107 66.5042 29.551 66.6479L27.3615 66.8635V66.8942H23.3524V66.8635L22.8282 66.8327C22.4787 66.8121 22.1909 66.7916 21.9647 66.7711C21.7386 66.7506 20.8854 66.6376 19.4051 66.4323C17.9249 66.227 16.7633 66.0217 15.9203 65.8164C15.0775 65.6111 13.8233 65.221 12.158 64.6461C10.4928 64.0713 9.06801 63.4902 7.88381 62.9031C6.70374 62.32 5.96362 61.9504 5.66343 61.7944C5.36738 61.6425 5.03433 61.4536 4.66426 61.2278L4.10917 60.889L4.09689 60.8706L4.07833 60.8582L4.05983 60.8459L4.04749 60.8274L3.98581 60.7966L3.92414 60.7658L3.91186 60.7474L3.8933 60.7351L3.87479 60.7227L3.86246 60.7043L3.85018 60.6858L3.83162 60.6735H3.80078V60.5503L3.86246 60.5626L3.92414 60.5811L4.20168 60.6119C4.38671 60.6324 4.89043 60.6632 5.71277 60.7043C6.53518 60.7453 7.4089 60.7453 8.33405 60.7043C9.25921 60.6632 10.205 60.5708 11.1712 60.4271C12.1375 60.2834 13.2785 60.037 14.5943 59.688C15.9101 59.3389 17.119 58.9242 18.221 58.4438C19.3188 57.9594 20.1 57.598 20.5647 57.3598C21.0252 57.1258 21.7283 56.6905 22.674 56.0541L24.0926 55.0994L24.1049 55.0809L24.1234 55.0686L24.142 55.0563L24.1543 55.0378L24.1666 55.0193L24.1851 55.007L24.2037 54.9947L24.2159 54.9762L24.2776 54.9577L24.3393 54.9454L24.3516 54.8838L24.3701 54.8222L24.3887 54.8099L24.401 54.7914L23.9075 54.7606C23.5786 54.7401 23.2599 54.7196 22.9515 54.699C22.6432 54.6785 22.16 54.5861 21.5021 54.4219C20.8443 54.2576 20.135 54.0112 19.3743 53.6828C18.6136 53.3543 17.8735 52.9642 17.1539 52.5125C16.4344 52.0609 15.9142 51.6851 15.5935 51.3854C15.2769 51.0897 14.8657 50.6709 14.3599 50.1289C13.8583 49.5828 13.4224 49.0223 13.0524 48.4475C12.6823 47.8726 12.3287 47.2094 11.9916 46.458L11.4796 45.3371L11.4488 45.2447L11.4179 45.1523L11.3994 45.0907L11.3871 45.0291L11.4796 45.0414L11.5721 45.0599L12.2506 45.1523C12.7029 45.2139 13.4122 45.2344 14.3784 45.2139C15.3447 45.1934 16.0129 45.1523 16.3829 45.0907C16.753 45.0291 16.9792 44.988 17.0614 44.9675L17.1847 44.9367L17.3389 44.9059L17.4931 44.8751L17.5055 44.8566L17.524 44.8443L17.5425 44.832L17.5548 44.8135L17.4314 44.7827L17.3081 44.7519L17.1847 44.7211L17.0614 44.6904L16.938 44.6596C16.8558 44.639 16.7119 44.598 16.5063 44.5364C16.3007 44.4748 15.7456 44.2489 14.841 43.8589C13.9364 43.4688 13.2169 43.089 12.6823 42.7194C12.1464 42.3488 11.6355 41.9435 11.1527 41.506C10.6716 41.0626 10.1433 40.4918 9.5676 39.7938C8.99197 39.0958 8.47801 38.2848 8.02567 37.3609C7.57339 36.437 7.23417 35.5542 7.008 34.7125C6.78273 33.8756 6.63412 33.0201 6.56398 32.1564L6.4529 30.863L6.51458 30.8753L6.57625 30.8938L6.63793 30.9246L6.69961 30.9553L6.76129 30.9861L6.82296 31.0169L7.77896 31.4481C8.41633 31.7355 9.20784 31.9819 10.1535 32.1872C11.0993 32.3925 11.6646 32.5054 11.8497 32.5259L12.1272 32.5567H12.6823L12.67 32.5383L12.6515 32.5259L12.633 32.5136L12.6206 32.4951L12.6083 32.4767L12.5898 32.4643L12.5713 32.452L12.5589 32.4336L12.4973 32.4028L12.4356 32.372L12.4233 32.3535L12.4047 32.3412L12.3862 32.3288L12.3739 32.3104L12.3122 32.2796L12.2506 32.2488L12.2383 32.2303C12.2259 32.222 12.0491 32.0907 11.7078 31.8361C11.3706 31.5774 11.017 31.2428 10.6469 30.8322C10.2769 30.4215 9.90682 29.9904 9.53676 29.5387C9.16602 29.086 8.8358 28.6017 8.54992 28.0913C8.26214 27.5781 7.95782 26.9251 7.6371 26.1327C7.32051 25.3443 7.07997 24.5498 6.91548 23.7491C6.75105 22.9484 6.65853 22.158 6.63793 21.3778C6.61739 20.5976 6.63793 19.9304 6.69961 19.3761C6.76129 18.8217 6.88464 18.1955 7.06967 17.4975C7.2547 16.7995 7.52201 16.0604 7.87148 15.2802L8.39573 14.1099L8.42657 14.0176L8.45741 13.9252L8.47597 13.9129L8.48825 13.8944L8.50058 13.8759L8.51909 13.8636L8.53765 13.8759L8.54992 13.8944L8.56226 13.9129L8.58076 13.9252L8.59933 13.9375L8.6116 13.956L8.62394 13.9744L8.64244 13.9868L8.67328 14.0484L8.70412 14.1099L8.72268 14.1223L8.73496 14.1407L9.5676 15.0646C10.1227 15.6805 10.7806 16.3683 11.5413 17.128C12.302 17.8876 12.7234 18.2818 12.8057 18.3105C12.8879 18.3433 12.9907 18.4378 13.114 18.5938C13.2374 18.7458 13.6486 19.1092 14.3476 19.684C15.0466 20.2589 15.9615 20.9261 17.0922 21.6858C18.223 22.4454 19.4771 23.1948 20.8545 23.9339C22.232 24.673 23.7123 25.3402 25.2953 25.9356C26.8783 26.531 27.9885 26.9211 28.6258 27.1058C29.2632 27.2906 30.3528 27.5267 31.8947 27.8142C33.4367 28.1016 34.5983 28.2864 35.3795 28.3685C36.1608 28.4506 36.6953 28.4978 36.9831 28.5101L37.4148 28.5225L37.4026 28.4301L37.384 28.3377L37.2607 27.5678C37.1784 27.0545 37.1373 26.336 37.1373 25.4121C37.1373 24.4882 37.2093 23.6362 37.3532 22.856C37.4971 22.0758 37.713 21.2854 38.0008 20.4847C38.2886 19.684 38.5703 19.0414 38.8458 18.5569C39.1254 18.0765 39.4913 17.5283 39.9436 16.9124C40.396 16.2965 40.9819 15.66 41.7014 15.003C42.421 14.346 43.2433 13.7609 44.1685 13.2477C45.0937 12.7344 45.9469 12.3443 46.7281 12.0774C47.5094 11.8105 48.1673 11.636 48.7018 11.5539C49.2363 11.4718 49.5036 11.4245 49.5036 11.4122V11.4122Z" stroke="#0D0D0D" stroke-width="2"/>
</svg>
