<svg width="76" height="76" viewBox="0 0 76 76" fill="none" xmlns="http://www.w3.org/2000/svg">
<path d="M10.6893 61.2937L10.6857 61.2929C7.51017 60.63 5.82729 58.7161 4.8346 56.173C3.83856 53.6214 3.57125 50.5182 3.30974 47.4822C3.30249 47.3981 3.29525 47.3141 3.288 47.2301C2.56406 38.6738 2.84472 29.9652 4.20982 21.4875C4.57066 19.2607 5.44632 17.5603 6.70919 16.3834C7.96978 15.2085 9.69002 14.4861 11.8669 14.3428L11.8669 14.3428L11.8718 14.3424C27.8126 13.2139 43.8706 13.3469 59.8121 13.8746L59.8164 13.8747C61.4229 13.9209 63.0585 14.174 64.7102 14.4734L64.7122 14.4738C66.5933 14.8107 67.9636 15.5268 68.9903 16.478C70.0242 17.4358 70.7598 18.6787 71.2923 20.1393C72.2738 22.8309 72.5129 26.0811 72.7508 29.3169C72.7754 29.6504 72.7999 29.9838 72.8252 30.3164C73.35 37.3019 73.1282 44.3214 72.1255 51.2557L72.1249 51.2601C71.7201 54.1492 71.1484 56.6205 69.9689 58.4202C68.8412 60.141 67.1049 61.3262 64.1101 61.5405L64.107 61.5407C55.9613 62.1491 48.0345 62.6371 39.9136 62.4937C39.8184 62.4668 39.739 62.4587 39.6961 62.4554C39.6585 62.4526 39.6251 62.4521 39.6094 62.452L24.8074 62.1754C23.8445 62.156 22.8902 62.1479 21.9433 62.1398C18.0925 62.1069 14.3655 62.0751 10.6893 61.2937ZM29.8915 48.7605V50.5067L31.3976 49.623C33.9772 48.1095 36.5356 46.6068 39.0878 45.1078C42.6701 43.0037 46.2402 40.9069 49.8394 38.7971L51.3119 37.9341L49.8391 37.0715C46.492 35.1113 43.1897 33.1708 39.8908 31.2324C37.0657 29.5724 34.2432 27.9138 31.3972 26.2456L29.8915 25.3631V27.1084V48.7605Z" stroke="#0D0D0D" stroke-width="2"/>
</svg>
